<?xml version="1.0" standalone="no"?>
<!DOCTYPE svg PUBLIC "-//W3C//DTD SVG 1.1//EN" "http://www.w3.org/Graphics/SVG/1.1/DTD/svg11.dtd" >
<svg>
<metadata>
Created by FontForge 20110222 at Mon Mar  7 11:45:22 2011
 By www-data
Copyright 2009 by Daniel Johnson.  Released under the terms of the Open Font License. Kayah Li glyphs are released under the GPL version 3.
</metadata>
<defs>
<font id="JuraBook" horiz-adv-x="634" >
  <font-face 
    font-family="Jura"
    font-weight="400"
    font-stretch="normal"
    units-per-em="1024"
    panose-1="2 0 5 3 0 0 0 0 0 0"
    ascent="819"
    descent="-205"
    x-height="461"
    cap-height="643"
    bbox="-115 -205 924 819"
    underline-thickness="51"
    underline-position="-102"
    unicode-range="U+0020-A92E"
  />
    <missing-glyph />
    <glyph glyph-name="cwikayahli" unicode="&#xa92e;" horiz-adv-x="614" 
d="M80 121q0 11 6 18t13 7q10 0 27 -15.5t36.5 -34t58 -34t84.5 -15.5q47 0 85.5 15.5t58.5 34t38 34t28 15.5q7 0 13 -6.5t6 -18.5q0 -18 -32 -47.5t-87.5 -54t-109.5 -24.5t-108.5 24.5t-85.5 54t-31 47.5z" />
    <glyph glyph-name="a" unicode="a" horiz-adv-x="592" 
d="M308 243q-51 0 -78.5 -3.5t-51.5 -16t-32.5 -37.5t-8.5 -68q0 -26 17 -46t38 -20h93q84 0 127 45.5t43 130.5v15h-147zM308 295h147v57q0 31 -11.5 44t-43.5 13h-141q-122 0 -122 -60q0 -35 -27 -35q-25 0 -25 35q0 58 46 85t121 27h155q58 0 79 -28t21 -98v-308
q0 -34 -26 -34t-26 35v35q-57 -63 -170 -63h-93q-47 0 -77 33.5t-30 89.5q0 101 54.5 136.5t168.5 35.5z" />
    <glyph glyph-name="b" unicode="b" horiz-adv-x="644" 
d="M137 398q59 63 171 63h29q115 0 168.5 -35.5t53.5 -140.5v-109q0 -105 -53.5 -140.5t-168.5 -35.5h-29q-112 0 -171 63v-35q0 -35 -26 -35t-26 34v580q0 36 24 36q28 0 28 -36v-209zM308 409q-171 0 -171 -177v-4q0 -176 171 -176h29q51 0 78.5 3.5t51 16t32 37.5t8.5 68
v107q0 43 -8.5 68t-32 37.5t-51 16t-78.5 3.5h-29z" />
    <glyph glyph-name="c" unicode="c" 
d="M449 0h-141q-115 0 -169 35.5t-54 140.5v109q0 105 54 140.5t169 35.5h141q32 0 53.5 -9.5t31 -27.5t12.5 -35t3 -40q0 -35 -26 -35t-26 33q0 35 -12 48.5t-43 13.5h-134q-51 0 -78.5 -3.5t-51.5 -16t-32.5 -37.5t-8.5 -68v-107q0 -43 8.5 -68t32.5 -37.5t51.5 -16
t78.5 -3.5h134q32 0 43.5 14t11.5 48q0 33 26 33t26 -36q0 -23 -3 -40t-12.5 -34.5t-31 -27t-53.5 -9.5z" />
    <glyph glyph-name="d" unicode="d" horiz-adv-x="644" 
d="M507 461v146q0 36 28 36q24 0 24 -36v-580q0 -34 -26 -34t-26 35v35q-59 -63 -171 -63h-29q-115 0 -168.5 35.5t-53.5 140.5v109q0 105 53.5 140.5t168.5 35.5h200zM507 409h-200q-51 0 -78.5 -3.5t-51 -16t-32 -37.5t-8.5 -68v-107q0 -43 8.5 -68t32 -37.5t51 -16
t78.5 -3.5h29q171 0 171 176v181z" />
    <glyph glyph-name="e" unicode="e" horiz-adv-x="644" 
d="M559 285v-40h-422v-68q0 -43 8.5 -68t32.5 -37.5t51.5 -16t78.5 -3.5h134q32 0 43.5 14t11.5 48q0 33 26 33t26 -36q0 -23 -3 -40t-12.5 -34.5t-31 -27t-53.5 -9.5h-141q-115 0 -169 35.5t-54 140.5v109q0 105 54 140.5t169 35.5h29q115 0 168.5 -35.5t53.5 -140.5z
M337 409h-29q-97 0 -133.5 -20.5t-37.5 -91.5h370q-1 71 -37.5 91.5t-132.5 20.5z" />
    <glyph glyph-name="f" unicode="f" horiz-adv-x="382" 
d="M298 584q-47 0 -72.5 -3.5t-48 -15.5t-31.5 -37t-9 -67h138q36 0 36 -28q0 -24 -36 -24h-138v-381q0 -35 -28 -35q-24 0 -24 35v382q-31 2 -31 27q0 22 31 24q1 55 15.5 91t45 54t65 24t87.5 6q36 0 36 -28q0 -24 -36 -24z" />
    <glyph glyph-name="g" unicode="g" horiz-adv-x="644" 
d="M559 -87q0 -65 -19 -91.5t-72 -26.5h-283q-32 0 -53.5 9.5t-31 27.5t-12.5 35t-3 40q0 35 26 35t26 -33q0 -35 12 -48.5t43 -13.5h269q29 0 37.5 10t8.5 40v103h-200q-115 0 -168.5 35.5t-53.5 140.5v109q0 105 53.5 140.5t168.5 35.5h29q112 0 171 -63v35q0 35 26 35
t26 -34v-521zM507 52v181q0 176 -171 176h-29q-51 0 -78.5 -3.5t-51 -16t-32 -37.5t-8.5 -68v-107q0 -43 8.5 -68t32 -37.5t51 -16t78.5 -3.5h200z" />
    <glyph glyph-name="h" unicode="h" horiz-adv-x="644" 
d="M308 409q-85 0 -128 -45.5t-43 -132.5v-204q0 -34 -26 -34t-26 34v580q0 36 24 36q28 0 28 -36v-209q59 63 171 63h29q115 0 168.5 -35.5t53.5 -140.5v-258q0 -34 -25 -34q-27 0 -27 34v257q0 43 -8.5 68t-32 37.5t-51 16t-78.5 3.5h-29z" />
    <glyph glyph-name="i" unicode="i" horiz-adv-x="220" 
d="M105 -12q-25 0 -25 32v420q0 33 26 33t26 -33v-420q0 -32 -27 -32zM106 642q16 0 33.5 -12t17.5 -29t-17.5 -29t-33.5 -12q-17 0 -34 12t-17 29t17 29t34 12z" />
    <glyph glyph-name="j" unicode="j" horiz-adv-x="218" 
d="M57 596q0 17 17.5 29t33.5 12q17 0 34 -12t17 -29t-17 -29t-34 -12q-16 0 -33.5 12t-17.5 29zM134 0q0 -56 -14.5 -91.5t-45 -53.5t-65.5 -24t-88 -6q-36 0 -36 27q0 25 36 25q92 0 126.5 22t34.5 101v432q0 36 27 36q25 0 25 -36v-432z" />
    <glyph glyph-name="k" unicode="k" horiz-adv-x="498" 
d="M452 19q0 -9 -7 -17t-17 -8q-11 0 -25 12l-237 229l-29 -29v-181q0 -32 -27 -32q-25 0 -25 31v586q0 33 26 33t26 -33v-341l194 185q13 12 24 12q9 0 17 -7.5t8 -18.5t-12 -23l-166 -152l239 -222q11 -13 11 -24z" />
    <glyph glyph-name="l" unicode="l" horiz-adv-x="266" 
d="M192 0h-7q-58 0 -79 28.5t-21 98.5v481q0 35 26 35t26 -35v-498q0 -32 11.5 -45t43.5 -13q35 0 35 -27q0 -25 -35 -25z" />
    <glyph glyph-name="m" unicode="m" horiz-adv-x="855" 
d="M268 409q-62 0 -96.5 -46t-34.5 -132v-204q0 -34 -26 -34t-26 34v406q0 35 24 35q28 0 28 -36v-34q28 34 57 48.5t74 14.5q68 0 110 -16.5t61 -63.5q51 80 147 80q92 0 138 -36t46 -140v-258q0 -34 -26 -34t-26 34v257q0 43 -6.5 68t-24.5 37.5t-39.5 16t-61.5 3.5
q-63 0 -98 -46t-35 -132v-204q0 -34 -25 -34q-27 0 -27 34v257q0 81 -27.5 103t-105.5 22z" />
    <glyph glyph-name="n" unicode="n" horiz-adv-x="644" 
d="M308 409q-85 0 -128 -45.5t-43 -132.5v-204q0 -34 -26 -34t-26 34v406q0 35 24 35q28 0 28 -36v-34q59 63 171 63h29q115 0 168.5 -35.5t53.5 -140.5v-258q0 -34 -25 -34q-27 0 -27 34v257q0 43 -8.5 68t-32 37.5t-51 16t-78.5 3.5h-29z" />
    <glyph glyph-name="o" unicode="o" horiz-adv-x="644" 
d="M337 0h-29q-115 0 -169 35.5t-54 140.5v109q0 105 54 140.5t169 35.5h29q115 0 168.5 -35.5t53.5 -140.5v-109q0 -105 -53.5 -140.5t-168.5 -35.5zM308 52h29q51 0 78.5 3.5t51 16t32 37.5t8.5 68v107q0 43 -8.5 68t-32 37.5t-51 16t-78.5 3.5h-29q-51 0 -78.5 -3.5
t-51.5 -16t-32.5 -37.5t-8.5 -68v-107q0 -43 8.5 -68t32.5 -37.5t51.5 -16t78.5 -3.5z" />
    <glyph glyph-name="p" unicode="p" horiz-adv-x="644" 
d="M507 284q0 43 -8.5 68t-32 37.5t-51 16t-78.5 3.5h-29q-171 0 -171 -177v-180h201q98 0 133.5 22t35.5 103v107zM559 176q0 -105 -53.5 -140.5t-167.5 -35.5h-201v-147q0 -35 -28 -35q-24 0 -24 35v581q0 34 26 34t26 -35v-35q59 63 171 63h29q115 0 168.5 -35.5
t53.5 -140.5v-109z" />
    <glyph glyph-name="q" unicode="q" horiz-adv-x="644" 
d="M137 284v-107q0 -43 8.5 -68t32 -37.5t51 -16t78.5 -3.5h200v180q0 177 -170 177h-29q-51 0 -78.5 -3.5t-51.5 -16t-32.5 -37.5t-8.5 -68zM85 176v109q0 105 54 140.5t169 35.5h29q113 0 170 -63v35q0 35 26 35t26 -34v-581q0 -35 -24 -35q-28 0 -28 35v147h-200
q-115 0 -168.5 35.5t-53.5 140.5z" />
    <glyph glyph-name="r" unicode="r" horiz-adv-x="432" 
d="M298 409q-78 0 -119.5 -46t-41.5 -132v-204q0 -34 -26 -34t-26 34v406q0 35 24 35q28 0 28 -36v-34q59 63 161 63h46q35 0 35 -26t-35 -26h-46z" />
    <glyph glyph-name="s" unicode="s" 
d="M185 0q-32 0 -53.5 9.5t-31 27t-12.5 34.5t-3 40q0 36 26 36t26 -33q0 -34 11.5 -48t43.5 -14h248q59 0 59 74q0 37 -16.5 60.5t-42.5 23.5h-226q-129 0 -129 130q0 60 31 90.5t108 30.5h225q32 0 53.5 -9.5t31 -27.5t12.5 -35t3 -40q0 -35 -26 -35t-26 33q0 35 -12 48.5
t-43 13.5h-246q-59 0 -59 -69q0 -38 16.5 -58t42.5 -20h227q70 0 99 -39t29 -97q0 -62 -31.5 -94t-106.5 -32h-228z" />
    <glyph glyph-name="t" unicode="t" horiz-adv-x="387" 
d="M132 177q0 -81 34.5 -103t126.5 -22q35 0 35 -24q0 -28 -35 -28q-108 0 -160.5 36t-52.5 140v234q-31 2 -31 27q0 22 31 24v104q0 36 24 36q28 0 28 -36v-104h138q36 0 36 -28q0 -24 -36 -24h-138v-232z" />
    <glyph glyph-name="u" unicode="u" horiz-adv-x="644" 
d="M336 52q85 0 128 45.5t43 132.5v204q0 34 26 34t26 -34v-406q0 -35 -24 -35q-28 0 -28 36v34q-59 -63 -171 -63h-29q-115 0 -168.5 35.5t-53.5 140.5v258q0 34 25 34q27 0 27 -34v-257q0 -43 8.5 -68t32 -37.5t51 -16t78.5 -3.5h29z" />
    <glyph glyph-name="v" unicode="v" horiz-adv-x="583" 
d="M284 51l178 401q9 21 28 21q24 0 24 -20q0 -8 -4 -17l-194 -441h-70l-182 441q-4 9 -4 16q0 21 24 21q18 0 28 -22z" />
    <glyph glyph-name="w" unicode="w" horiz-adv-x="837" 
d="M780 436l-155 -436h-79l-127 374l-137 -374h-79l-146 436q-4 12 -4 18q0 19 24 19q20 0 28 -22l140 -403l146 398q8 21 29 21q20 0 27 -21l140 -398l145 403q8 22 28 22q24 0 24 -19q0 -6 -4 -18z" />
    <glyph glyph-name="x" unicode="x" horiz-adv-x="588" 
d="M510 12q0 -10 -8 -16.5t-17 -6.5q-12 0 -24 12l-166 193l-167 -193q-14 -12 -25 -12q-9 0 -17 6.5t-8 16.5q0 4 10 24l171 194l-171 195q-10 12 -10 23q0 10 8 17t17 7q11 0 25 -12l167 -193l166 193q12 12 24 12q9 0 17 -7t8 -17q0 -11 -10 -23l-171 -195l171 -194
q10 -15 10 -24z" />
    <glyph glyph-name="y" unicode="y" horiz-adv-x="644" 
d="M559 -87q0 -65 -19 -91.5t-72 -26.5h-283q-32 0 -53.5 9.5t-31 27.5t-12.5 35t-3 40q0 35 26 35t26 -33q0 -35 12 -48.5t43 -13.5h269q29 0 37.5 10t8.5 40v166q-59 -63 -171 -63h-29q-115 0 -168.5 35.5t-53.5 140.5v258q0 34 25 34q27 0 27 -34v-257q0 -43 8.5 -68
t32 -37.5t51 -16t78.5 -3.5h29q85 0 128 45.5t43 132.5v204q0 34 26 34t26 -34v-521z" />
    <glyph glyph-name="z" unicode="z" horiz-adv-x="611" 
d="M152 52h267q36 0 46 18t10 59q0 36 26 36t26 -36q0 -70 -21 -99.5t-79 -29.5h-342v64l357 345h-250q-35 0 -45 -18t-10 -59q0 -36 -27 -36q-25 0 -25 36q0 71 21 100t79 29h321v-67z" />
    <glyph glyph-name="A" unicode="A" horiz-adv-x="598" 
d="M50 -16q-8 0 -17 6t-9 19q0 7 3 16l231 621h54l231 -621q3 -9 3 -16q0 -13 -9 -19t-17 -6q-17 0 -27 23l-71 192h-274l-71 -192q-10 -23 -27 -23zM284 560l-116 -309h234z" />
    <glyph glyph-name="B" unicode="B" 
d="M137 332v-280h190q98 0 134 22.5t36 103.5v28q0 81 -35 103.5t-129 22.5h-196zM85 36v574q0 36 24 36h180q109 0 163.5 -33t54.5 -122q0 -81 -49 -117q46 -17 68.5 -55.5t22.5 -109.5v-29q0 -108 -53.5 -144t-168.5 -36h-218q-24 0 -24 36zM289 384q93 0 129.5 20
t36.5 82q0 64 -37.5 83.5t-128.5 19.5h-152v-205h152z" />
    <glyph glyph-name="C" unicode="C" 
d="M449 0h-141q-116 0 -169.5 36t-53.5 144v286q0 108 53 144t164 36h147q32 0 53.5 -9.5t31 -27t12.5 -34.5t3 -41q0 -35 -26 -35t-26 33q0 35 -12 48.5t-43 13.5h-140q-48 0 -75 -3.5t-50 -16.5t-31.5 -39t-8.5 -69v-286q0 -83 36 -105.5t135 -22.5h134q32 0 43.5 14
t11.5 48q0 33 26 33t26 -36q0 -23 -3 -40t-12.5 -34.5t-31 -27t-53.5 -9.5z" />
    <glyph glyph-name="D" unicode="D" 
d="M549 466v-286q0 -108 -53.5 -144t-168.5 -36h-218q-24 0 -24 36v574q0 36 24 36h224q54 0 90 -6.5t66.5 -25.5t45 -55.5t14.5 -92.5zM497 180v286q0 82 -35 105t-129 23h-196v-542h190q98 0 134 22.5t36 105.5z" />
    <glyph glyph-name="E" unicode="E" 
d="M137 332v-280h378q34 0 34 -28q0 -24 -34 -24h-406q-24 0 -24 36v569q0 36 24 36h406q34 0 34 -28q0 -24 -34 -24h-378v-205h259q36 0 36 -28q0 -24 -36 -24h-259z" />
    <glyph glyph-name="F" unicode="F" 
d="M137 27q0 -34 -26 -34t-26 35v577q0 36 24 36h406q34 0 34 -28q0 -24 -34 -24h-378v-205h259q36 0 36 -28q0 -24 -36 -24h-259v-305z" />
    <glyph glyph-name="G" unicode="G" 
d="M497 246h-131q-36 0 -36 25q0 27 36 27h183v-197q0 -49 -19.5 -79t-80.5 -30h-147q-55 0 -91 6.5t-66.5 24.5t-45 54t-14.5 92v298q0 106 53.5 141.5t169.5 35.5h141q32 0 53.5 -9.5t31 -27t12.5 -34.5t3 -40q0 -36 -26 -36t-26 34q0 33 -11.5 47t-43.5 14h-134
q-99 0 -135 -22.5t-36 -103.5v-296q0 -81 35.5 -103.5t129.5 -22.5h140q32 0 43.5 13.5t11.5 46.5v142z" />
    <glyph glyph-name="H" unicode="H" 
d="M137 27q0 -34 -26 -34t-26 34v581q0 35 24 35q28 0 28 -35v-239h360v239q0 35 25 35q27 0 27 -35v-581q0 -34 -25 -34q-27 0 -27 34v290h-360v-290z" />
    <glyph glyph-name="I" unicode="I" horiz-adv-x="221" 
d="M137 25q0 -32 -27 -32q-25 0 -25 32v585q0 33 26 33t26 -33v-585z" />
    <glyph glyph-name="J" unicode="J" horiz-adv-x="606" 
d="M304 44q95 0 130.5 22.5t35.5 103.5v441q0 32 26 32t26 -33v-441q0 -56 -14.5 -92t-45 -54t-67 -24.5t-91.5 -6.5t-91.5 6.5t-67.5 25t-45.5 55t-14.5 93.5q0 33 28 33q25 0 25 -33q0 -83 35 -105.5t131 -22.5z" />
    <glyph glyph-name="K" unicode="K" horiz-adv-x="579" 
d="M515 18q0 -10 -8.5 -17.5t-17.5 -7.5q-13 0 -25 15l-274 314l-53 -64v-233q0 -32 -27 -32q-25 0 -25 32v585q0 33 26 33t26 -33v-280l261 298q11 15 25 15q8 0 16.5 -7t8.5 -17q0 -11 -10 -24l-213 -239l279 -315q11 -13 11 -23z" />
    <glyph glyph-name="L" unicode="L" horiz-adv-x="578" 
d="M109 0q-24 0 -24 35v576q0 32 26 32t26 -32v-559h323q33 0 33 -27q0 -25 -33 -25h-351z" />
    <glyph glyph-name="M" unicode="M" horiz-adv-x="654" 
d="M327 279q-11 0 -17 8l-173 258v-517q0 -35 -26 -35t-26 34v581q0 35 24 35q18 0 30 -19l188 -278l189 278q13 19 29 19q25 0 25 -35v-581q0 -34 -27 -34q-25 0 -25 35v517l-173 -258q-6 -8 -18 -8z" />
    <glyph glyph-name="N" unicode="N" 
d="M524 -7q-14 0 -20 7l-367 543v-517q0 -33 -26 -33t-26 34v581q0 35 24 35q18 0 30 -19l358 -528v511q0 36 25 36q27 0 27 -35v-581q0 -34 -25 -34z" />
    <glyph glyph-name="O" unicode="O" 
d="M317 -9q-102 0 -167 63t-65 174v180q0 111 65 174t167 63t167 -63.5t65 -173.5v-180q0 -110 -65 -173.5t-167 -63.5zM317 593q-86 0 -133 -49t-47 -137v-178q0 -88 47 -137t133 -49t133 49t47 137v178q0 88 -47 137t-133 49z" />
    <glyph glyph-name="P" unicode="P" horiz-adv-x="570" 
d="M137 25q0 -32 -27 -32q-25 0 -25 32v580q0 36 24 36h181q108 0 162.5 -33t54.5 -122q0 -75 -45.5 -114.5t-127.5 -39.5h-197v-307zM290 384q92 0 128.5 20t36.5 82q0 64 -37 83.5t-128 19.5h-153v-205h153z" />
    <glyph glyph-name="Q" unicode="Q" 
d="M317 593q-86 0 -133 -49t-47 -137v-178q0 -88 47 -137t133 -49q68 0 109 29l-56 52q-13 11 -13 23q0 10 7.5 18t18.5 8q12 0 26 -13l54 -53q34 46 34 122v178q0 88 -47 137t-133 49zM317 -9q-102 0 -167 63t-65 174v180q0 111 65 174t167 63t167 -63.5t65 -173.5v-180
q0 -97 -49 -157l35 -34q11 -13 11 -24q0 -9 -7 -17t-17 -8q-13 0 -24 11l-35 35q-60 -43 -146 -43z" />
    <glyph glyph-name="R" unicode="R" horiz-adv-x="587" 
d="M289 384q93 0 129.5 20t36.5 82q0 64 -37 83.5t-129 19.5h-152v-205h152zM390 342q33 -32 64 -109.5t46 -137t15 -70.5q0 -14 -7.5 -23t-19.5 -9t-18.5 9.5t-6.5 22.5t-14 68.5t-48 131t-76 107.5h-188v-307q0 -32 -27 -32q-25 0 -25 32v585q0 36 24 36h180
q109 0 163.5 -33t54.5 -122q0 -125 -117 -149z" />
    <glyph glyph-name="S" unicode="S" horiz-adv-x="616" 
d="M137 481q0 -40 17.5 -68.5t42.5 -33.5l237 -51q67 -15 97 -62t30 -110q0 -67 -39.5 -115.5t-130.5 -48.5h-83q-57 0 -94 6.5t-68.5 25t-46 55t-14.5 93.5q0 33 28 33q25 0 25 -33q0 -83 35.5 -105.5t134.5 -22.5h102q53 0 76 36t23 77q0 49 -19.5 79.5t-40.5 35.5
l-235 52q-70 15 -99.5 52.5t-29.5 105.5q0 67 41 114.5t136 47.5h76q57 0 93.5 -6.5t68.5 -24.5t46.5 -54t14.5 -93q0 -33 -27 -33q-26 0 -26 33q0 83 -35 104.5t-135 21.5h-98q-54 0 -78.5 -35t-24.5 -76z" />
    <glyph glyph-name="T" unicode="T" horiz-adv-x="535" 
d="M448 646q33 0 33 -27q0 -25 -33 -25h-152v-569q0 -32 -29 -32q-26 0 -26 32v569h-154q-33 0 -33 26t33 26h361z" />
    <glyph glyph-name="U" unicode="U" 
d="M497 611q0 32 27 32q25 0 25 -33v-382q0 -110 -65 -173.5t-167 -63.5t-167 63t-65 174v382q0 33 26 33t26 -32v-382q0 -88 47 -137t133 -49t133 49t47 137v382z" />
    <glyph glyph-name="V" unicode="V" horiz-adv-x="598" 
d="M24 627q0 13 9.5 19t16.5 6q18 0 27 -23l213 -559l203 559q10 23 27 23q7 0 16.5 -6t9.5 -19q0 -4 -3 -16l-227 -611h-52l-237 611q-3 12 -3 16z" />
    <glyph glyph-name="W" unicode="W" horiz-adv-x="987" 
d="M700 72l172 555q8 22 28 22q24 0 24 -19q0 -6 -4 -18l-192 -612h-58l-177 553l-176 -553h-57l-193 616q-4 12 -4 18q0 19 24 19q20 0 28 -22l174 -559l175 554q9 26 29 26q23 0 31 -26z" />
    <glyph glyph-name="X" unicode="X" horiz-adv-x="656" 
d="M546 643q8 0 17 -6t9 -20q0 -12 -8 -21l-203 -279l203 -278q8 -11 8 -22t-8.5 -17.5t-17.5 -6.5q-13 0 -25 16l-193 268l-192 -268q-12 -16 -26 -16q-9 0 -17 7t-8 17q0 11 8 22l203 278l-203 279q-8 9 -8 21q0 14 9 20t16 6q13 0 26 -18l192 -267l193 267q14 18 25 18z
" />
    <glyph glyph-name="Y" unicode="Y" horiz-adv-x="615" 
d="M282 308l-209 289q-8 12 -8 21q0 11 8 18t17 7q11 0 25 -18l193 -267l192 267q13 18 26 18q8 0 16.5 -7.5t8.5 -17.5q0 -9 -8 -21l-208 -289v-284q0 -31 -27 -31q-26 0 -26 31v284z" />
    <glyph glyph-name="Z" unicode="Z" 
d="M86 0v51l401 543h-366q-36 0 -36 26t36 26h428v-53l-399 -541h364q35 0 35 -27q0 -25 -35 -25h-428z" />
    <glyph glyph-name="space" unicode=" " horiz-adv-x="409" 
 />
    <glyph glyph-name="exclam" unicode="!" horiz-adv-x="210" 
d="M105 -12q-16 0 -33.5 12t-17.5 29t17.5 29t33.5 12q17 0 34.5 -12t17.5 -29t-17 -29t-35 -12zM105 649q26 0 26 -33v-419q0 -33 -27 -33q-25 0 -25 33v419q0 33 26 33z" />
    <glyph glyph-name="quotedbl" unicode="&#x22;" horiz-adv-x="272" 
d="M186 433q-25 0 -25 33v149q0 33 26 33t26 -33v-149q0 -33 -27 -33zM85 433q-25 0 -25 33v149q0 33 26 33q25 0 25 -33v-149q0 -33 -26 -33z" />
    <glyph glyph-name="numbersign" unicode="#" horiz-adv-x="504" 
d="M294 605q0 -5 -3 -17l-57 -152h124l62 170q9 24 27 24q11 0 18.5 -8t7.5 -18q0 -7 -3 -16l-56 -152h63q33 0 33 -26t-33 -26h-82l-48 -132h99q33 0 33 -27q0 -25 -33 -25h-118l-62 -170q-8 -24 -27 -24q-26 0 -26 26q0 7 3 16l57 152h-125l-61 -170q-8 -24 -27 -24
q-25 0 -25 25q0 5 3 17l56 152h-66q-33 0 -33 26t33 26h85l48 132h-103q-32 0 -32 27q0 25 32 25h122l62 170q10 24 26 24q26 0 26 -25zM216 384l-48 -132h123l48 132h-123z" />
    <glyph glyph-name="dollar" unicode="$" 
d="M185 89q-32 0 -53 9t-31 26.5t-13 34.5t-3 41q0 34 26 34t26 -32q0 -35 12 -48t43 -13h104v160h-82q-129 0 -129 131q0 59 29.5 90t99.5 31h82v57q0 33 26 33t26 -32v-57h101q32 0 53 -9t31 -26.5t13 -34.5t3 -41q0 -34 -26 -34t-26 32q0 35 -12 47.5t-43 12.5h-94v-148
h75q70 0 99 -39t29 -98q0 -126 -128 -126h-75v-65q0 -32 -27 -32q-25 0 -25 31v65h-111zM440 301h-92v-160h92q59 0 59 73q0 38 -16.5 62.5t-42.5 24.5zM196 353h100v148h-100q-59 0 -59 -67q0 -39 16.5 -60t42.5 -21z" />
    <glyph glyph-name="percent" unicode="%" horiz-adv-x="502" 
d="M338 183q0 -12 9 -21t21 -9q13 0 21.5 9t8.5 21q0 13 -9 21.5t-21 8.5t-21 -8.5t-9 -21.5zM283 183q0 34 25 58t60 24q34 0 58 -24t24 -58t-24 -58t-58 -24q-35 0 -60 24t-25 58zM105 466q0 -12 9 -21t21 -9q11 0 20.5 8.5t9.5 21.5t-9.5 21.5t-20.5 8.5q-12 0 -21 -9
t-9 -21zM52 466q0 34 24.5 58t58.5 24q35 0 59.5 -24t24.5 -58t-24.5 -58t-59.5 -24q-34 0 -58.5 24t-24.5 58zM437 528q8 0 16.5 -7.5t8.5 -17.5q0 -11 -12 -24l-360 -346q-13 -12 -25 -12q-8 0 -16.5 7.5t-8.5 17.5q0 12 12 24l361 346q13 12 24 12z" />
    <glyph glyph-name="ampersand" unicode="&#x26;" horiz-adv-x="586" 
d="M427 528q0 -10 -7.5 -17.5t-18.5 -7.5q-12 0 -23.5 15t-21 33.5t-29 33.5t-44.5 15q-47 0 -85.5 -34t-38.5 -90q0 -36 38 -79l236 -272q29 44 29 102q0 36 27 36q24 0 24 -36q0 -80 -45 -143l46 -52q7 -8 7 -21q0 -12 -7 -17.5t-15 -5.5q-15 0 -30 16l-35 41
q-67 -59 -145 -59q-34 0 -68.5 10.5t-67 32t-53 61.5t-20.5 92q0 49 20.5 97t63.5 78l-11 13q-48 58 -48 106q0 76 56.5 126t122.5 50q32 0 60.5 -17t45.5 -39.5t27 -41.5t10 -26zM400 84l-202 235q-66 -42 -66 -137q0 -75 48 -109.5t109 -34.5q59 0 111 46z" />
    <glyph glyph-name="quotesingle" unicode="'" horiz-adv-x="171" 
d="M85 433q-25 0 -25 33v149q0 33 26 33q25 0 25 -33v-149q0 -33 -26 -33z" />
    <glyph glyph-name="parenleft" unicode="(" horiz-adv-x="269" 
d="M132 503v-370q0 -34 0.5 -53t4 -35.5t7 -23t14.5 -11t21 -5t31 -0.5v-52q-36 0 -56.5 5t-39.5 22.5t-26.5 54.5t-7.5 98v370q0 61 7.5 98t26.5 54.5t39.5 22.5t56.5 5v-52q-21 0 -31 -0.5t-21 -5t-14.5 -11t-7 -23t-4 -35.5t-0.5 -53z" />
    <glyph glyph-name="parenright" unicode=")" horiz-adv-x="269" 
d="M158 503q0 34 -0.5 53t-4 35.5t-7 23t-14.5 11t-21 5t-31 0.5v52q36 0 56.5 -5t39.5 -22.5t26.5 -54.5t7.5 -98v-370q0 -61 -7.5 -98t-26.5 -54.5t-39.5 -22.5t-56.5 -5v52q21 0 31 0.5t21 5t14.5 11t7 23t4 35.5t0.5 53v370z" />
    <glyph glyph-name="asterisk" unicode="*" horiz-adv-x="386" 
d="M302 404q-8 0 -20 6l-63 36v-72q0 -33 -26 -33t-26 33v72l-63 -36q-12 -6 -20 -6q-10 0 -17 8t-7 17q0 15 18 26l63 37l-63 35q-18 11 -18 26q0 7 6 16t18 9q8 0 20 -6l63 -36v72q0 33 27 33q25 0 25 -33v-72l63 36q12 6 20 6q11 0 18 -8t7 -17q0 -14 -19 -26l-62 -35
l62 -37q19 -12 19 -26q0 -7 -6.5 -16t-18.5 -9z" />
    <glyph glyph-name="plus" unicode="+" horiz-adv-x="562" 
d="M281 -12q-26 0 -26 32v184h-164q-31 0 -31 27q0 26 31 26h164v183q0 33 27 33q25 0 25 -33v-183h162q34 0 34 -28q0 -11 -9.5 -18t-24.5 -7h-162v-184q0 -32 -26 -32z" />
    <glyph glyph-name="comma" unicode="," horiz-adv-x="185" 
d="M142 41q0 -10 -5 -19l-41 -83q-10 -24 -25 -24q-22 0 -22 25q0 4 3 16l24 87q7 23 25 23q11 0 26 -6t15 -19z" />
    <glyph glyph-name="hyphen" unicode="-" horiz-adv-x="429" 
d="M60 231q0 26 31 26h245q34 0 34 -28q0 -11 -9.5 -18t-24.5 -7h-245q-31 0 -31 27z" />
    <glyph glyph-name="period" unicode="." horiz-adv-x="221" 
d="M111 70q16 0 33.5 -12t17.5 -29t-17.5 -29t-33.5 -12q-17 0 -34 12t-17 29t17 29t34 12z" />
    <glyph glyph-name="slash" unicode="/" horiz-adv-x="330" 
d="M302 626q0 -8 -3 -18l-218 -598q-8 -23 -26 -23q-9 0 -17.5 5.5t-8.5 18.5q0 6 3 18l218 598q8 23 25 23q9 0 18 -5.5t9 -18.5z" />
    <glyph glyph-name="zero" unicode="0" 
d="M137 497v-359q0 -34 33.5 -62.5t83.5 -28.5h126q50 0 83.5 28.5t33.5 62.5v359q0 34 -33.5 62.5t-83.5 28.5h-126q-50 0 -83.5 -28.5t-33.5 -62.5zM549 154q0 -70 -50.5 -114.5t-127.5 -44.5h-108q-77 0 -127.5 44.5t-50.5 114.5v328q0 70 50.5 114.5t127.5 44.5h108
q77 0 127.5 -44.5t50.5 -114.5v-328z" />
    <glyph glyph-name="one" unicode="1" horiz-adv-x="304" 
d="M132 600l-25 -24q-13 -14 -29 -14q-13 0 -18.5 7t-5.5 15q0 13 14 26l61 62q15 13 28 13q9 0 18 -7t9 -21v-632q0 -32 -26 -32t-26 32v575z" />
    <glyph glyph-name="two" unicode="2" 
d="M549 460q0 -50 -41.5 -90.5t-101.5 -71t-120 -63t-103 -80.5t-45 -108h376q35 0 35 -27q0 -25 -35 -25h-428v49q0 71 42.5 125.5t103 88t120.5 62t102.5 63.5t42.5 77q0 83 -35 106t-129 23h-141q-32 0 -43 -13.5t-11 -46.5q0 -35 -27 -35q-25 0 -25 35q0 60 23 86t76 26
h148q111 0 163.5 -36.5t52.5 -144.5z" />
    <glyph glyph-name="three" unicode="3" 
d="M359 589h-84q-47 0 -92.5 -17t-45.5 -45q0 -33 -26 -33t-26 35q0 45 49.5 78.5t133.5 33.5h80q109 0 155 -42.5t46 -147.5q0 -33 -44 -72t-83 -53q37 -11 82 -58.5t45 -82.5q0 -105 -46 -147.5t-155 -42.5h-80q-84 0 -133.5 33.5t-49.5 77.5q0 36 26 36t26 -33
q0 -28 45.5 -45t92.5 -17h84q79 0 109 30.5t30 88.5q0 53 -64 93t-122 40q-39 0 -39 27q0 26 39 26q62 0 124 33t62 85q0 58 -30 88.5t-109 30.5z" />
    <glyph glyph-name="four" unicode="4" 
d="M519 170h-56v-146q0 -31 -26 -31q-27 0 -27 31v146h-327v63l314 408h66v-419h56q32 0 32 -26t-32 -26zM135 222h275v357z" />
    <glyph glyph-name="five" unicode="5" 
d="M111 121q5 0 32.5 -19.5t72.5 -39t93 -19.5q86 0 133 49t47 137q0 43 -15.5 75.5t-40.5 49.5t-49.5 25t-48.5 8h-242l9 125q5 72 31 100.5t83 28.5h251q32 0 32 -27q0 -25 -32 -25h-257q-25 0 -38 -13t-16 -47l-6 -90h176q84 0 149.5 -57t65.5 -153q0 -111 -64.5 -174.5
t-167.5 -63.5q-63 0 -142.5 35t-79.5 69q0 10 8 18t16 8z" />
    <glyph glyph-name="six" unicode="6" 
d="M85 209q0 87 22 163.5t53 124.5t66 82.5t61 49.5t38 15q29 0 29 -23q0 -16 -22 -27q-52 -27 -99.5 -82.5t-72.5 -136.5q64 53 157 53q100 0 166 -61.5t66 -156.5q0 -96 -66 -157.5t-166 -61.5q-101 0 -166.5 61t-65.5 157zM137 210q0 -76 48 -121.5t132 -45.5t132 45.5
t48 121.5q0 75 -48 120.5t-132 45.5t-132 -45.5t-48 -120.5z" />
    <glyph glyph-name="seven" unicode="7" 
d="M291 -10q-10 0 -19.5 5.5t-9.5 18.5q0 10 5 21l211 559h-276q-32 0 -44 -13.5t-12 -46.5q0 -35 -26 -35t-26 35q0 60 23.5 86t76.5 26h320q26 0 26 -23q0 -9 -4 -21l-218 -586q-10 -26 -27 -26z" />
    <glyph glyph-name="eight" unicode="8" 
d="M137 174q0 -43 8.5 -69t31.5 -38.5t49.5 -16t75.5 -3.5h31q49 0 75 3.5t49 16t31.5 38.5t8.5 69q0 82 -35 105t-129 23h-31q-48 0 -75 -3.5t-50 -16.5t-31.5 -39t-8.5 -69zM549 174q0 -56 -14.5 -92.5t-45 -55t-66.5 -25t-90 -6.5h-31q-43 0 -73.5 3.5t-59 15t-46 30.5
t-28 51.5t-10.5 78.5q0 112 64 152q-64 35 -64 146q0 46 11 78t27.5 49.5t47 27t58.5 12t73 2.5h31q44 0 72 -2.5t58.5 -12t47 -27t27.5 -49.5t11 -78q0 -111 -63 -146q63 -41 63 -152zM497 472q0 25 -3.5 43t-8 31t-16.5 21t-21.5 12.5t-31 6.5t-37 2.5t-46.5 0.5h-31
q-44 0 -63 -1t-44 -6.5t-34.5 -18t-16.5 -34.5t-7 -57t7 -57t16.5 -34.5t34 -18.5t44.5 -7t63 -1h31q36 0 53 0.5t40.5 4t33 10.5t20 20t14 33.5t3.5 49.5z" />
    <glyph glyph-name="nine" unicode="9" 
d="M85 471q0 45 19 78t45.5 50t64 27t64 12.5t55.5 2.5q216 0 216 -171q0 -106 -31.5 -199t-82 -154.5t-114.5 -97t-130 -35.5q-31 0 -31 27q0 26 31 26q35 0 76.5 17.5t84.5 51t79 93.5t53 135q-51 -32 -151 -32q-248 0 -248 169zM333 589q-196 0 -196 -118
q0 -38 17.5 -63.5t49.5 -36t60.5 -14t68.5 -3.5q89 0 126.5 30t37.5 86q0 119 -164 119z" />
    <glyph glyph-name="colon" unicode=":" horiz-adv-x="221" 
d="M111 121q16 0 33.5 -12t17.5 -29t-17.5 -29t-33.5 -12q-17 0 -34 12t-17 29t17 29t34 12zM111 474q16 0 33.5 -12t17.5 -29t-17.5 -29t-33.5 -12q-17 0 -34 12t-17 29t17 29t34 12z" />
    <glyph glyph-name="semicolon" unicode=";" horiz-adv-x="221" 
d="M160 92q0 -10 -5 -19l-41 -83q-10 -24 -25 -24q-22 0 -22 25q0 4 3 16l24 87q7 23 25 23q11 0 26 -6t15 -19zM111 474q16 0 33.5 -12t17.5 -29t-17.5 -29t-33.5 -12q-17 0 -34 12t-17 29t17 29t34 12z" />
    <glyph glyph-name="less" unicode="&#x3c;" horiz-adv-x="546" 
d="M463 89q-10 0 -21 7l-364 210q-18 11 -18 27q0 15 18 25l364 210q8 6 20 6q11 0 18 -6.5t7 -16.5q0 -8 -6 -16.5t-13 -11.5l-331 -190l330 -192q20 -10 20 -25q0 -7 -6 -17t-18 -10z" />
    <glyph glyph-name="equal" unicode="=" horiz-adv-x="429" 
d="M60 384q0 26 31 26h245q34 0 34 -28q0 -11 -9.5 -18t-24.5 -7h-245q-31 0 -31 27zM60 281q0 26 31 26h245q34 0 34 -28q0 -11 -9.5 -18t-24.5 -7h-245q-31 0 -31 27z" />
    <glyph glyph-name="greater" unicode="&#x3e;" horiz-adv-x="546" 
d="M84 89q-12 0 -18 10t-6 17q0 15 20 25l330 192l-331 190q-7 3 -13 11.5t-6 16.5q0 10 7 16.5t18 6.5q12 0 20 -6l364 -210q18 -10 18 -25q0 -16 -18 -27l-364 -210q-11 -7 -21 -7z" />
    <glyph glyph-name="question" unicode="?" horiz-adv-x="614" 
d="M292 70q16 0 33.5 -12t17.5 -29t-17.5 -29t-33.5 -12q-17 0 -34 12t-17 29t17 29t34 12zM318 194q0 -33 -26 -33t-26 33v144l157 43q26 7 43 35t17 68q0 42 -23.5 77.5t-73.5 35.5h-93q-38 0 -60.5 -2t-44.5 -8.5t-32.5 -20.5t-17 -37t-6.5 -58q0 -33 -26 -33
q-27 0 -27 33q0 56 14.5 92.5t45.5 54.5t66 24.5t88 6.5h76q88 0 127 -48.5t39 -116.5q0 -67 -28.5 -104t-98.5 -56l-90 -25v-105z" />
    <glyph glyph-name="at" unicode="@" horiz-adv-x="614" 
d="M299 -5q-97 0 -155 65.5t-58 180.5v154q0 115 58 180.5t155 65.5h29q97 0 155 -65.5t58 -180.5q0 -32 -1 -52t-6 -44.5t-14 -39.5t-25.5 -30.5t-40 -24t-58 -14t-79.5 -5.5q-73 0 -99.5 34t-26.5 113q0 78 26.5 112t99.5 34t100 -34t27 -112q0 -51 -10 -82q32 9 43.5 37
t11.5 108q0 92 -41 143t-120 51h-29q-80 0 -120.5 -51t-40.5 -143v-154q0 -92 40.5 -143t120.5 -51h134q31 0 43.5 13.5t12.5 48.5q0 33 25 33q27 0 27 -36q0 -23 -3.5 -40t-13 -34.5t-31 -27t-53.5 -9.5h-141zM317 237q49 0 62 19t13 76t-13 75.5t-62 18.5q-48 0 -61 -18.5
t-13 -75.5q0 -58 13 -76.5t61 -18.5z" />
    <glyph glyph-name="bracketleft" unicode="[" horiz-adv-x="269" 
d="M132 631v-626h78v-52h-130v730h130v-52h-78z" />
    <glyph glyph-name="backslash" unicode="\" horiz-adv-x="330" 
d="M81 627l218 -598q3 -12 3 -18q0 -13 -9 -18.5t-18 -5.5q-17 0 -25 23l-218 598q-3 10 -3 18q0 13 8.5 18.5t17.5 5.5q18 0 26 -23z" />
    <glyph glyph-name="bracketright" unicode="]" horiz-adv-x="269" 
d="M158 5v626h-78v52h130v-730h-130v52h78z" />
    <glyph glyph-name="asciicircum" unicode="^" horiz-adv-x="443" 
d="M222 581l-90 -200q-11 -21 -29 -21q-10 0 -16.5 6.5t-6.5 16.5q0 4 2 12l110 246h60l109 -246q2 -4 2 -12q0 -23 -23 -23q-18 0 -29 21z" />
    <glyph glyph-name="underscore" unicode="_" horiz-adv-x="475" 
d="M-5 -20q0 25 33 25h419q33 0 33 -27q0 -25 -33 -25h-419q-33 0 -33 27z" />
    <glyph glyph-name="grave" unicode="`" horiz-adv-x="212" 
d="M54 683q12 0 25 -15l96 -115q9 -11 9 -23q0 -11 -8 -18t-17 -7q-11 0 -25 15l-96 115q-9 11 -9 22t8 18.5t17 7.5z" />
    <glyph glyph-name="braceleft" unicode="{" horiz-adv-x="269" 
d="M160 236q0 -26 -14 -72t-14 -56q0 -70 12.5 -86.5t65.5 -16.5v-52q-70 0 -100 30t-30 125q0 19 14 65t14 63q0 22 -26 44.5t-47 32.5v8q21 11 47 34t26 45q0 17 -14 63t-14 65q0 95 30 125t100 30v-52q-52 0 -65 -17t-13 -86q0 -10 14 -56t14 -72q0 -40 -71 -83
q71 -39 71 -81z" />
    <glyph glyph-name="bar" unicode="|" horiz-adv-x="221" 
d="M137 25q0 -32 -27 -32q-25 0 -25 32v585q0 33 26 33t26 -33v-585z" />
    <glyph glyph-name="braceright" unicode="}" horiz-adv-x="269" 
d="M85 236q0 42 71 81q-71 43 -71 83q0 26 14 72t14 56q0 69 -13 86t-65 17v52q70 0 100 -30t30 -125q0 -19 -14 -65t-14 -63q0 -22 26 -45t47 -34v-8q-21 -10 -47 -32.5t-26 -44.5q0 -17 14 -63t14 -65q0 -95 -30 -125t-100 -30v52q53 0 65.5 16.5t12.5 86.5q0 10 -14 56
t-14 72z" />
    <glyph glyph-name="asciitilde" unicode="~" horiz-adv-x="401" 
d="M255 234q3 0 8 4l31 28q13 9 22 9q10 0 18 -6t8 -17q0 -14 -14 -27l-47 -39q-8 -8 -19 -8q-2 0 -4 0.5t-3.5 0.5t-2.5 1h-2l-98 36q-2 2 -6 2q-3 0 -8 -4l-31 -28q-13 -9 -22 -9t-17 6.5t-8 17.5q0 15 14 26l46 38q7 9 19 9q2 0 7 -1t6 -1l98 -36z" />
    <glyph glyph-name="exclamdown" unicode="&#xa1;" horiz-adv-x="210" 
d="M105 -170q-25 0 -25 32v420q0 33 26 33t26 -33v-420q0 -32 -27 -32zM105 491q18 0 35 -12t17 -29t-17.5 -29t-34.5 -12q-16 0 -33.5 12t-17.5 29t17.5 29t33.5 12z" />
    <glyph glyph-name="cent" unicode="&#xa2;" horiz-adv-x="535" 
d="M276 -12q-25 0 -25 32v98q-85 5 -127 44t-42 136v42q0 95 43 134.5t126 44.5v96q0 33 27 33q25 0 25 -33v-95h52q32 0 53 -9.5t30.5 -27t12.5 -34t3 -40.5q0 -36 -25 -36q-27 0 -27 34q0 35 -11.5 48t-42.5 13h-45v-298h43q31 0 43.5 13t12.5 48q0 34 25 34q27 0 27 -36
q0 -23 -3.5 -40t-13 -34.5t-31 -27t-53.5 -9.5h-50v-98q0 -32 -27 -32zM251 171v296q-63 -3 -90 -29.5t-27 -97.5v-42q0 -73 26 -98.5t91 -28.5z" />
    <glyph glyph-name="sterling" unicode="&#xa3;" horiz-adv-x="537" 
d="M80 23q0 6 1 9l38 436q5 56 21.5 93.5t44 55.5t55 24.5t63.5 6.5q71 0 112 -30.5t41 -116.5q0 -33 -27 -33q-25 0 -25 33q0 61 -25 78t-80 17q-59 0 -90 -24t-38 -104l-9 -99h34q32 0 32 -27q0 -25 -32 -25h-38l-24 -270h291q33 0 33 -27q0 -25 -33 -25h-323
q-22 0 -22 28z" />
    <glyph glyph-name="dieresis" unicode="&#xa8;" horiz-adv-x="367" 
d="M111 671q16 0 33.5 -12t17.5 -29t-17.5 -29t-33.5 -12q-17 0 -34 12t-17 29t17 29t34 12zM257 671q16 0 33.5 -12t17.5 -29t-17.5 -29t-33.5 -12q-17 0 -34 12t-17 29t17 29t34 12z" />
    <glyph glyph-name="acute" unicode="&#xb4;" horiz-adv-x="212" 
d="M175 635l-96 -115q-14 -15 -25 -15q-8 0 -16.5 7.5t-8.5 17.5q0 12 9 23l96 115q14 15 25 15q9 0 17 -7.5t8 -18.5t-9 -22z" />
    <glyph glyph-name="questiondown" unicode="&#xbf;" horiz-adv-x="614" 
d="M323 409q-17 0 -34.5 12t-17.5 29t17 29t35 12q16 0 33.5 -12t17.5 -29t-17.5 -29t-33.5 -12zM296 285q0 33 27 33q25 0 25 -33v-144l-157 -43q-26 -7 -43 -35.5t-17 -67.5q0 -42 23.5 -77.5t73.5 -35.5h94q48 0 73.5 3.5t47.5 15.5t30.5 38t8.5 69q0 33 26 33
q27 0 27 -33q0 -56 -14.5 -92.5t-45 -54.5t-65.5 -24.5t-88 -6.5h-76q-88 0 -127.5 48.5t-39.5 116.5q0 67 29 104t99 56l89 25v105z" />
    <glyph glyph-name="Aring" unicode="&#xc5;" horiz-adv-x="598" 
d="M241 738q0 -18 13 -31t31 -13q17 0 30.5 13t13.5 31t-13.5 31t-30.5 13q-18 0 -31 -13.5t-13 -30.5zM285 819q34 0 57.5 -23.5t23.5 -57.5t-23.5 -57.5t-57.5 -23.5t-57.5 23.5t-23.5 57.5t23.5 57.5t57.5 23.5zM50 -16q-8 0 -17 6t-9 19q0 7 3 16l231 621h54l231 -621
q3 -9 3 -16q0 -13 -9 -19t-17 -6q-17 0 -27 23l-71 192h-274l-71 -192q-10 -23 -27 -23zM284 560l-116 -309h234z" />
    <glyph glyph-name="Agrave" unicode="&#xc0;" horiz-adv-x="598" 
d="M203 819q12 0 24 -13l70 -69q12 -14 12 -25q0 -8 -7 -16t-18 -8q-13 0 -25 13l-69 68q-13 15 -13 25q0 8 8 16.5t18 8.5zM50 -16q-8 0 -17 6t-9 19q0 7 3 16l231 621h54l231 -621q3 -9 3 -16q0 -13 -9 -19t-17 -6q-17 0 -27 23l-71 192h-274l-71 -192q-10 -23 -27 -23z
M284 560l-116 -309h234z" />
    <glyph glyph-name="Aacute" unicode="&#xc1;" horiz-adv-x="598" 
d="M361 770l-70 -69q-12 -13 -24 -13q-10 0 -18 7.5t-8 16.5q0 11 13 26l69 68q12 13 25 13q11 0 18 -8.5t7 -16.5q0 -10 -12 -24zM50 -16q-8 0 -17 6t-9 19q0 7 3 16l231 621h54l231 -621q3 -9 3 -16q0 -13 -9 -19t-17 -6q-17 0 -27 23l-71 192h-274l-71 -192
q-10 -23 -27 -23zM284 560l-116 -309h234z" />
    <glyph glyph-name="Acircumflex" unicode="&#xc2;" horiz-adv-x="598" 
d="M150 687l105 132h59l107 -132q6 -8 6 -18q0 -23 -23 -23q-5 0 -9.5 2t-6 3.5t-6.5 7.5t-6 7l-91 96l-90 -96q-2 -2 -5 -6t-5 -5.5t-4.5 -4t-6 -3.5t-7.5 -1q-23 0 -23 23q0 10 6 18zM50 -16q-8 0 -17 6t-9 19q0 7 3 16l231 621h54l231 -621q3 -9 3 -16q0 -13 -9 -19
t-17 -6q-17 0 -27 23l-71 192h-274l-71 -192q-10 -23 -27 -23zM284 560l-116 -309h234z" />
    <glyph glyph-name="Atilde" unicode="&#xc3;" horiz-adv-x="598" 
d="M339 758q3 0 8 4l31 28q13 9 22 9q10 0 18 -6t8 -17q0 -14 -14 -27l-47 -39q-8 -8 -19 -8q-2 0 -4 0.5t-3.5 0.5t-2.5 1h-2l-98 36q-2 2 -6 2q-3 0 -8 -4l-31 -28q-13 -9 -22 -9t-17 6.5t-8 17.5q0 15 14 26l46 38q7 9 19 9q2 0 7 -1t6 -1l98 -36zM50 -16q-8 0 -17 6
t-9 19q0 7 3 16l231 621h54l231 -621q3 -9 3 -16q0 -13 -9 -19t-17 -6q-17 0 -27 23l-71 192h-274l-71 -192q-10 -23 -27 -23zM284 560l-116 -309h234z" />
    <glyph glyph-name="Adieresis" unicode="&#xc4;" horiz-adv-x="598" 
d="M50 -16q-8 0 -17 6t-9 19q0 7 3 16l231 621h54l231 -621q3 -9 3 -16q0 -13 -9 -19t-17 -6q-17 0 -27 23l-71 192h-274l-71 -192q-10 -23 -27 -23zM284 560l-116 -309h234zM212 784q16 0 33.5 -12t17.5 -29t-17.5 -29t-33.5 -12q-17 0 -34 12t-17 29t17 29t34 12zM358 784
q16 0 33.5 -12t17.5 -29t-17.5 -29t-33.5 -12q-17 0 -34 12t-17 29t17 29t34 12z" />
    <glyph glyph-name="cedilla" unicode="&#xb8;" horiz-adv-x="209" 
d="M148 -89q0 21 -13 34t-57 23v49h31v-25q43 -15 56.5 -32.5t13.5 -48.5q0 -60 -75 -60q-67 0 -67 48q0 18 15 18q16 0 16 -18q0 -17 36 -17q44 0 44 29z" />
    <glyph glyph-name="Ccedilla" unicode="&#xc7;" 
d="M377 -96q0 21 -13 34t-57 23v39q-57 0 -94 7t-68 25.5t-45.5 55t-14.5 92.5v286q0 108 53 144t164 36h147q32 0 53.5 -9.5t31 -27t12.5 -34.5t3 -41q0 -35 -26 -35t-26 33q0 35 -12 48.5t-43 13.5h-140q-48 0 -75 -3.5t-50 -16.5t-31.5 -39t-8.5 -69v-286
q0 -83 36 -105.5t135 -22.5h134q32 0 43.5 14t11.5 48q0 33 26 33t26 -36q0 -23 -3 -40t-12.5 -34.5t-31 -27t-53.5 -9.5h-111v-15q43 -15 56.5 -32.5t13.5 -48.5q0 -60 -75 -60q-67 0 -67 48q0 18 15 18q16 0 16 -18q0 -17 36 -17q44 0 44 29z" />
    <glyph glyph-name="Egrave" unicode="&#xc8;" 
d="M231 819q12 0 24 -13l70 -69q12 -14 12 -25q0 -8 -7 -16t-18 -8q-13 0 -25 13l-69 68q-13 15 -13 25q0 8 8 16.5t18 8.5zM137 332v-280h378q34 0 34 -28q0 -24 -34 -24h-406q-24 0 -24 36v569q0 36 24 36h406q34 0 34 -28q0 -24 -34 -24h-378v-205h259q36 0 36 -28
q0 -24 -36 -24h-259z" />
    <glyph glyph-name="Eacute" unicode="&#xc9;" 
d="M376 770l-70 -69q-12 -13 -24 -13q-10 0 -18 7.5t-8 16.5q0 11 13 26l69 68q12 13 25 13q11 0 18 -8.5t7 -16.5q0 -10 -12 -24zM137 332v-280h378q34 0 34 -28q0 -24 -34 -24h-406q-24 0 -24 36v569q0 36 24 36h406q34 0 34 -28q0 -24 -34 -24h-378v-205h259q36 0 36 -28
q0 -24 -36 -24h-259z" />
    <glyph glyph-name="Ecircumflex" unicode="&#xca;" 
d="M177 687l105 132h59l107 -132q6 -8 6 -18q0 -23 -23 -23q-5 0 -9.5 2t-6 3.5t-6.5 7.5t-6 7l-91 96l-90 -96q-2 -2 -5 -6t-5 -5.5t-4.5 -4t-6 -3.5t-7.5 -1q-23 0 -23 23q0 10 6 18zM137 332v-280h378q34 0 34 -28q0 -24 -34 -24h-406q-24 0 -24 36v569q0 36 24 36h406
q34 0 34 -28q0 -24 -34 -24h-378v-205h259q36 0 36 -28q0 -24 -36 -24h-259z" />
    <glyph glyph-name="Edieresis" unicode="&#xcb;" 
d="M137 332v-280h378q34 0 34 -28q0 -24 -34 -24h-406q-24 0 -24 36v569q0 36 24 36h406q34 0 34 -28q0 -24 -34 -24h-378v-205h259q36 0 36 -28q0 -24 -36 -24h-259zM240 784q16 0 33.5 -12t17.5 -29t-17.5 -29t-33.5 -12q-17 0 -34 12t-17 29t17 29t34 12zM386 784
q16 0 33.5 -12t17.5 -29t-17.5 -29t-33.5 -12q-17 0 -34 12t-17 29t17 29t34 12z" />
    <glyph glyph-name="Igrave" unicode="&#xcc;" horiz-adv-x="221" 
d="M31 819q12 0 24 -13l70 -69q12 -14 12 -25q0 -8 -7 -16t-18 -8q-13 0 -25 13l-69 68q-13 15 -13 25q0 8 8 16.5t18 8.5zM137 25q0 -32 -27 -32q-25 0 -25 32v585q0 33 26 33t26 -33v-585z" />
    <glyph glyph-name="Iacute" unicode="&#xcd;" horiz-adv-x="221" 
d="M206 770l-70 -69q-12 -13 -24 -13q-10 0 -18 7.5t-8 16.5q0 11 13 26l69 68q12 13 25 13q11 0 18 -8.5t7 -16.5q0 -10 -12 -24zM137 25q0 -32 -27 -32q-25 0 -25 32v585q0 33 26 33t26 -33v-585z" />
    <glyph glyph-name="Icircumflex" unicode="&#xce;" horiz-adv-x="221" 
d="M-23 687l105 132h59l107 -132q6 -8 6 -18q0 -23 -23 -23q-5 0 -9.5 2t-6 3.5t-6.5 7.5t-6 7l-91 96l-90 -96q-2 -2 -5 -6t-5 -5.5t-4.5 -4t-6 -3.5t-7.5 -1q-23 0 -23 23q0 10 6 18zM137 25q0 -32 -27 -32q-25 0 -25 32v585q0 33 26 33t26 -33v-585z" />
    <glyph glyph-name="Idieresis" unicode="&#xcf;" horiz-adv-x="221" 
d="M137 25q0 -32 -27 -32q-25 0 -25 32v585q0 33 26 33t26 -33v-585zM39 784q16 0 33.5 -12t17.5 -29t-17.5 -29t-33.5 -12q-17 0 -34 12t-17 29t17 29t34 12zM185 784q16 0 33.5 -12t17.5 -29t-17.5 -29t-33.5 -12q-17 0 -34 12t-17 29t17 29t34 12z" />
    <glyph glyph-name="Ntilde" unicode="&#xd1;" 
d="M370 758q3 0 8 4l31 28q13 9 22 9q10 0 18 -6t8 -17q0 -14 -14 -27l-47 -39q-8 -8 -19 -8q-2 0 -4 0.5t-3.5 0.5t-2.5 1h-2l-98 36q-2 2 -6 2q-3 0 -8 -4l-31 -28q-13 -9 -22 -9t-17 6.5t-8 17.5q0 15 14 26l46 38q7 9 19 9q2 0 7 -1t6 -1l98 -36zM524 -7q-14 0 -20 7
l-367 543v-517q0 -33 -26 -33t-26 34v581q0 35 24 35q18 0 30 -19l358 -528v511q0 36 25 36q27 0 27 -35v-581q0 -34 -25 -34z" />
    <glyph glyph-name="Ograve" unicode="&#xd2;" 
d="M236 819q12 0 24 -13l70 -69q12 -14 12 -25q0 -8 -7 -16t-18 -8q-13 0 -25 13l-69 68q-13 15 -13 25q0 8 8 16.5t18 8.5zM317 -9q-102 0 -167 63t-65 174v180q0 111 65 174t167 63t167 -63.5t65 -173.5v-180q0 -110 -65 -173.5t-167 -63.5zM317 593q-86 0 -133 -49
t-47 -137v-178q0 -88 47 -137t133 -49t133 49t47 137v178q0 88 -47 137t-133 49z" />
    <glyph glyph-name="Oacute" unicode="&#xd3;" 
d="M411 770l-70 -69q-12 -13 -24 -13q-10 0 -18 7.5t-8 16.5q0 11 13 26l69 68q12 13 25 13q11 0 18 -8.5t7 -16.5q0 -10 -12 -24zM317 -9q-102 0 -167 63t-65 174v180q0 111 65 174t167 63t167 -63.5t65 -173.5v-180q0 -110 -65 -173.5t-167 -63.5zM317 593q-86 0 -133 -49
t-47 -137v-178q0 -88 47 -137t133 -49t133 49t47 137v178q0 88 -47 137t-133 49z" />
    <glyph glyph-name="Ocircumflex" unicode="&#xd4;" 
d="M182 687l105 132h59l107 -132q6 -8 6 -18q0 -23 -23 -23q-5 0 -9.5 2t-6 3.5t-6.5 7.5t-6 7l-91 96l-90 -96q-2 -2 -5 -6t-5 -5.5t-4.5 -4t-6 -3.5t-7.5 -1q-23 0 -23 23q0 10 6 18zM317 -9q-102 0 -167 63t-65 174v180q0 111 65 174t167 63t167 -63.5t65 -173.5v-180
q0 -110 -65 -173.5t-167 -63.5zM317 593q-86 0 -133 -49t-47 -137v-178q0 -88 47 -137t133 -49t133 49t47 137v178q0 88 -47 137t-133 49z" />
    <glyph glyph-name="Otilde" unicode="&#xd5;" 
d="M371 758q3 0 8 4l31 28q13 9 22 9q10 0 18 -6t8 -17q0 -14 -14 -27l-47 -39q-8 -8 -19 -8q-2 0 -4 0.5t-3.5 0.5t-2.5 1h-2l-98 36q-2 2 -6 2q-3 0 -8 -4l-31 -28q-13 -9 -22 -9t-17 6.5t-8 17.5q0 15 14 26l46 38q7 9 19 9q2 0 7 -1t6 -1l98 -36zM317 -9q-102 0 -167 63
t-65 174v180q0 111 65 174t167 63t167 -63.5t65 -173.5v-180q0 -110 -65 -173.5t-167 -63.5zM317 593q-86 0 -133 -49t-47 -137v-178q0 -88 47 -137t133 -49t133 49t47 137v178q0 88 -47 137t-133 49z" />
    <glyph glyph-name="Odieresis" unicode="&#xd6;" 
d="M317 -9q-102 0 -167 63t-65 174v180q0 111 65 174t167 63t167 -63.5t65 -173.5v-180q0 -110 -65 -173.5t-167 -63.5zM317 593q-86 0 -133 -49t-47 -137v-178q0 -88 47 -137t133 -49t133 49t47 137v178q0 88 -47 137t-133 49zM245 784q16 0 33.5 -12t17.5 -29t-17.5 -29
t-33.5 -12q-17 0 -34 12t-17 29t17 29t34 12zM391 784q16 0 33.5 -12t17.5 -29t-17.5 -29t-33.5 -12q-17 0 -34 12t-17 29t17 29t34 12z" />
    <glyph glyph-name="Ugrave" unicode="&#xd9;" 
d="M497 611q0 32 27 32q25 0 25 -33v-382q0 -110 -65 -173.5t-167 -63.5t-167 63t-65 174v382q0 33 26 33t26 -32v-382q0 -88 47 -137t133 -49t133 49t47 137v382zM236 809q12 0 25 -15l96 -115q9 -11 9 -23q0 -11 -8 -18t-17 -7q-11 0 -25 15l-96 115q-9 11 -9 22t8 18.5
t17 7.5z" />
    <glyph glyph-name="Uacute" unicode="&#xda;" 
d="M497 611q0 32 27 32q25 0 25 -33v-382q0 -110 -65 -173.5t-167 -63.5t-167 63t-65 174v382q0 33 26 33t26 -32v-382q0 -88 47 -137t133 -49t133 49t47 137v382zM438 761l-96 -115q-14 -15 -25 -15q-8 0 -16.5 7.5t-8.5 17.5q0 12 9 23l96 115q14 15 25 15q9 0 17 -7.5
t8 -18.5t-9 -22z" />
    <glyph glyph-name="Ucircumflex" unicode="&#xdb;" 
d="M182 687l105 132h59l107 -132q6 -8 6 -18q0 -23 -23 -23q-5 0 -9.5 2t-6 3.5t-6.5 7.5t-6 7l-91 96l-90 -96q-2 -2 -5 -6t-5 -5.5t-4.5 -4t-6 -3.5t-7.5 -1q-23 0 -23 23q0 10 6 18zM497 611q0 32 27 32q25 0 25 -33v-382q0 -110 -65 -173.5t-167 -63.5t-167 63t-65 174
v382q0 33 26 33t26 -32v-382q0 -88 47 -137t133 -49t133 49t47 137v382z" />
    <glyph glyph-name="Udieresis" unicode="&#xdc;" 
d="M497 611q0 32 27 32q25 0 25 -33v-382q0 -110 -65 -173.5t-167 -63.5t-167 63t-65 174v382q0 33 26 33t26 -32v-382q0 -88 47 -137t133 -49t133 49t47 137v382zM245 784q16 0 33.5 -12t17.5 -29t-17.5 -29t-33.5 -12q-17 0 -34 12t-17 29t17 29t34 12zM391 784
q16 0 33.5 -12t17.5 -29t-17.5 -29t-33.5 -12q-17 0 -34 12t-17 29t17 29t34 12z" />
    <glyph glyph-name="Yacute" unicode="&#xdd;" horiz-adv-x="615" 
d="M282 308l-209 289q-8 12 -8 21q0 11 8 18t17 7q11 0 25 -18l193 -267l192 267q13 18 26 18q8 0 16.5 -7.5t8.5 -17.5q0 -9 -8 -21l-208 -289v-284q0 -31 -27 -31q-26 0 -26 31v284zM429 761l-96 -115q-14 -15 -25 -15q-8 0 -16.5 7.5t-8.5 17.5q0 12 9 23l96 115
q14 15 25 15q9 0 17 -7.5t8 -18.5t-9 -22z" />
    <glyph glyph-name="agrave" unicode="&#xe0;" horiz-adv-x="592" 
d="M308 243q-51 0 -78.5 -3.5t-51.5 -16t-32.5 -37.5t-8.5 -68q0 -26 17 -46t38 -20h93q84 0 127 45.5t43 130.5v15h-147zM308 295h147v57q0 31 -11.5 44t-43.5 13h-141q-122 0 -122 -60q0 -35 -27 -35q-25 0 -25 35q0 58 46 85t121 27h155q58 0 79 -28t21 -98v-308
q0 -34 -26 -34t-26 35v35q-57 -63 -170 -63h-93q-47 0 -77 33.5t-30 89.5q0 101 54.5 136.5t168.5 35.5zM215 680q12 0 25 -15l96 -115q9 -11 9 -23q0 -11 -8 -18t-17 -7q-11 0 -25 15l-96 115q-9 11 -9 22t8 18.5t17 7.5z" />
    <glyph glyph-name="aacute" unicode="&#xe1;" horiz-adv-x="592" 
d="M308 243q-51 0 -78.5 -3.5t-51.5 -16t-32.5 -37.5t-8.5 -68q0 -26 17 -46t38 -20h93q84 0 127 45.5t43 130.5v15h-147zM308 295h147v57q0 31 -11.5 44t-43.5 13h-141q-122 0 -122 -60q0 -35 -27 -35q-25 0 -25 35q0 58 46 85t121 27h155q58 0 79 -28t21 -98v-308
q0 -34 -26 -34t-26 35v35q-57 -63 -170 -63h-93q-47 0 -77 33.5t-30 89.5q0 101 54.5 136.5t168.5 35.5zM417 635l-96 -115q-14 -15 -25 -15q-8 0 -16.5 7.5t-8.5 17.5q0 12 9 23l96 115q14 15 25 15q9 0 17 -7.5t8 -18.5t-9 -22z" />
    <glyph glyph-name="acircumflex" unicode="&#xe2;" horiz-adv-x="592" 
d="M161 558l105 132h59l107 -132q6 -8 6 -18q0 -23 -23 -23q-5 0 -9.5 2t-6 3.5t-6.5 7.5t-6 7l-91 96l-90 -96q-2 -2 -5 -6t-5 -5.5t-4.5 -4t-6 -3.5t-7.5 -1q-23 0 -23 23q0 10 6 18zM308 243q-51 0 -78.5 -3.5t-51.5 -16t-32.5 -37.5t-8.5 -68q0 -26 17 -46t38 -20h93
q84 0 127 45.5t43 130.5v15h-147zM308 295h147v57q0 31 -11.5 44t-43.5 13h-141q-122 0 -122 -60q0 -35 -27 -35q-25 0 -25 35q0 58 46 85t121 27h155q58 0 79 -28t21 -98v-308q0 -34 -26 -34t-26 35v35q-57 -63 -170 -63h-93q-47 0 -77 33.5t-30 89.5q0 101 54.5 136.5
t168.5 35.5z" />
    <glyph glyph-name="atilde" unicode="&#xe3;" horiz-adv-x="592" 
d="M351 574q3 0 8 4l31 28q13 9 22 9q10 0 18 -6t8 -17q0 -14 -14 -27l-47 -39q-8 -8 -19 -8q-2 0 -4 0.5t-3.5 0.5t-2.5 1h-2l-98 36q-2 2 -6 2q-3 0 -8 -4l-31 -28q-13 -9 -22 -9t-17 6.5t-8 17.5q0 15 14 26l46 38q7 9 19 9q2 0 7 -1t6 -1l98 -36zM308 243
q-51 0 -78.5 -3.5t-51.5 -16t-32.5 -37.5t-8.5 -68q0 -26 17 -46t38 -20h93q84 0 127 45.5t43 130.5v15h-147zM308 295h147v57q0 31 -11.5 44t-43.5 13h-141q-122 0 -122 -60q0 -35 -27 -35q-25 0 -25 35q0 58 46 85t121 27h155q58 0 79 -28t21 -98v-308q0 -34 -26 -34
t-26 35v35q-57 -63 -170 -63h-93q-47 0 -77 33.5t-30 89.5q0 101 54.5 136.5t168.5 35.5z" />
    <glyph glyph-name="adieresis" unicode="&#xe4;" horiz-adv-x="592" 
d="M308 243q-51 0 -78.5 -3.5t-51.5 -16t-32.5 -37.5t-8.5 -68q0 -26 17 -46t38 -20h93q84 0 127 45.5t43 130.5v15h-147zM308 295h147v57q0 31 -11.5 44t-43.5 13h-141q-122 0 -122 -60q0 -35 -27 -35q-25 0 -25 35q0 58 46 85t121 27h155q58 0 79 -28t21 -98v-308
q0 -34 -26 -34t-26 35v35q-57 -63 -170 -63h-93q-47 0 -77 33.5t-30 89.5q0 101 54.5 136.5t168.5 35.5zM223 599q16 0 33.5 -12t17.5 -29t-17.5 -29t-33.5 -12q-17 0 -34 12t-17 29t17 29t34 12zM369 599q16 0 33.5 -12t17.5 -29t-17.5 -29t-33.5 -12q-17 0 -34 12t-17 29
t17 29t34 12z" />
    <glyph glyph-name="aring" unicode="&#xe5;" horiz-adv-x="592" 
d="M253 598q0 -18 13 -31t31 -13q17 0 30.5 13t13.5 31t-13.5 31t-30.5 13q-18 0 -31 -13.5t-13 -30.5zM297 679q34 0 57.5 -23.5t23.5 -57.5t-23.5 -57.5t-57.5 -23.5t-57.5 23.5t-23.5 57.5t23.5 57.5t57.5 23.5zM308 243q-51 0 -78.5 -3.5t-51.5 -16t-32.5 -37.5
t-8.5 -68q0 -26 17 -46t38 -20h93q84 0 127 45.5t43 130.5v15h-147zM308 295h147v57q0 31 -11.5 44t-43.5 13h-141q-122 0 -122 -60q0 -35 -27 -35q-25 0 -25 35q0 58 46 85t121 27h155q58 0 79 -28t21 -98v-308q0 -34 -26 -34t-26 35v35q-57 -63 -170 -63h-93
q-47 0 -77 33.5t-30 89.5q0 101 54.5 136.5t168.5 35.5z" />
    <glyph glyph-name="ccedilla" unicode="&#xe7;" 
d="M375 -96q0 21 -13 34t-57 23v39q-56 0 -93 7t-67.5 25t-45 53.5t-14.5 90.5v109q0 105 54 140.5t169 35.5h141q32 0 53.5 -9.5t31 -27.5t12.5 -35t3 -40q0 -35 -26 -35t-26 33q0 35 -12 48.5t-43 13.5h-134q-51 0 -78.5 -3.5t-51.5 -16t-32.5 -37.5t-8.5 -68v-107
q0 -43 8.5 -68t32.5 -37.5t51.5 -16t78.5 -3.5h134q32 0 43.5 14t11.5 48q0 33 26 33t26 -36q0 -23 -3 -40t-12.5 -34.5t-31 -27t-53.5 -9.5h-113v-15q43 -15 56.5 -32.5t13.5 -48.5q0 -60 -75 -60q-67 0 -67 48q0 18 15 18q16 0 16 -18q0 -17 36 -17q44 0 44 29z" />
    <glyph glyph-name="egrave" unicode="&#xe8;" horiz-adv-x="644" 
d="M559 285v-40h-422v-68q0 -43 8.5 -68t32.5 -37.5t51.5 -16t78.5 -3.5h134q32 0 43.5 14t11.5 48q0 33 26 33t26 -36q0 -23 -3 -40t-12.5 -34.5t-31 -27t-53.5 -9.5h-141q-115 0 -169 35.5t-54 140.5v109q0 105 54 140.5t169 35.5h29q115 0 168.5 -35.5t53.5 -140.5z
M337 409h-29q-97 0 -133.5 -20.5t-37.5 -91.5h370q-1 71 -37.5 91.5t-132.5 20.5zM239 683q12 0 25 -15l96 -115q9 -11 9 -23q0 -11 -8 -18t-17 -7q-11 0 -25 15l-96 115q-9 11 -9 22t8 18.5t17 7.5z" />
    <glyph glyph-name="eacute" unicode="&#xe9;" horiz-adv-x="644" 
d="M559 285v-40h-422v-68q0 -43 8.5 -68t32.5 -37.5t51.5 -16t78.5 -3.5h134q32 0 43.5 14t11.5 48q0 33 26 33t26 -36q0 -23 -3 -40t-12.5 -34.5t-31 -27t-53.5 -9.5h-141q-115 0 -169 35.5t-54 140.5v109q0 105 54 140.5t169 35.5h29q115 0 168.5 -35.5t53.5 -140.5z
M337 409h-29q-97 0 -133.5 -20.5t-37.5 -91.5h370q-1 71 -37.5 91.5t-132.5 20.5zM444 635l-96 -115q-14 -15 -25 -15q-8 0 -16.5 7.5t-8.5 17.5q0 12 9 23l96 115q14 15 25 15q9 0 17 -7.5t8 -18.5t-9 -22z" />
    <glyph glyph-name="ecircumflex" unicode="&#xea;" horiz-adv-x="644" 
d="M187 558l105 132h59l107 -132q6 -8 6 -18q0 -23 -23 -23q-5 0 -9.5 2t-6 3.5t-6.5 7.5t-6 7l-91 96l-90 -96q-2 -2 -5 -6t-5 -5.5t-4.5 -4t-6 -3.5t-7.5 -1q-23 0 -23 23q0 10 6 18zM559 285v-40h-422v-68q0 -43 8.5 -68t32.5 -37.5t51.5 -16t78.5 -3.5h134q32 0 43.5 14
t11.5 48q0 33 26 33t26 -36q0 -23 -3 -40t-12.5 -34.5t-31 -27t-53.5 -9.5h-141q-115 0 -169 35.5t-54 140.5v109q0 105 54 140.5t169 35.5h29q115 0 168.5 -35.5t53.5 -140.5zM337 409h-29q-97 0 -133.5 -20.5t-37.5 -91.5h370q-1 71 -37.5 91.5t-132.5 20.5z" />
    <glyph glyph-name="edieresis" unicode="&#xeb;" horiz-adv-x="644" 
d="M559 285v-40h-422v-68q0 -43 8.5 -68t32.5 -37.5t51.5 -16t78.5 -3.5h134q32 0 43.5 14t11.5 48q0 33 26 33t26 -36q0 -23 -3 -40t-12.5 -34.5t-31 -27t-53.5 -9.5h-141q-115 0 -169 35.5t-54 140.5v109q0 105 54 140.5t169 35.5h29q115 0 168.5 -35.5t53.5 -140.5z
M337 409h-29q-97 0 -133.5 -20.5t-37.5 -91.5h370q-1 71 -37.5 91.5t-132.5 20.5zM250 599q16 0 33.5 -12t17.5 -29t-17.5 -29t-33.5 -12q-17 0 -34 12t-17 29t17 29t34 12zM396 599q16 0 33.5 -12t17.5 -29t-17.5 -29t-33.5 -12q-17 0 -34 12t-17 29t17 29t34 12z" />
    <glyph glyph-name="igrave" unicode="&#xec;" horiz-adv-x="220" 
d="M2 684q12 0 25 -15l96 -115q9 -11 9 -23q0 -11 -8 -18t-17 -7q-11 0 -25 15l-96 115q-9 11 -9 22t8 18.5t17 7.5z" />
    <glyph glyph-name="iacute" unicode="&#xed;" horiz-adv-x="220" 
d="M226 635l-96 -115q-14 -15 -25 -15q-8 0 -16.5 7.5t-8.5 17.5q0 12 9 23l96 115q14 15 25 15q9 0 17 -7.5t8 -18.5t-9 -22z" />
    <glyph glyph-name="icircumflex" unicode="&#xee;" horiz-adv-x="220" 
d="M-29 565l105 132h59l107 -132q6 -8 6 -18q0 -23 -23 -23q-5 0 -9.5 2t-6 3.5t-6.5 7.5t-6 7l-91 96l-90 -96q-2 -2 -5 -6t-5 -5.5t-4.5 -4t-6 -3.5t-7.5 -1q-23 0 -23 23q0 10 6 18z" />
    <glyph glyph-name="idieresis" unicode="&#xef;" horiz-adv-x="220" 
d="M33 606q16 0 33.5 -12t17.5 -29t-17.5 -29t-33.5 -12q-17 0 -34 12t-17 29t17 29t34 12zM179 606q16 0 33.5 -12t17.5 -29t-17.5 -29t-33.5 -12q-17 0 -34 12t-17 29t17 29t34 12z" />
    <glyph glyph-name="ntilde" unicode="&#xf1;" horiz-adv-x="644" 
d="M376 581q3 0 8 4l31 28q13 9 22 9q10 0 18 -6t8 -17q0 -14 -14 -27l-47 -39q-8 -8 -19 -8q-2 0 -4 0.5t-3.5 0.5t-2.5 1h-2l-98 36q-2 2 -6 2q-3 0 -8 -4l-31 -28q-13 -9 -22 -9t-17 6.5t-8 17.5q0 15 14 26l46 38q7 9 19 9q2 0 7 -1t6 -1l98 -36zM308 409
q-85 0 -128 -45.5t-43 -132.5v-204q0 -34 -26 -34t-26 34v406q0 35 24 35q28 0 28 -36v-34q59 63 171 63h29q115 0 168.5 -35.5t53.5 -140.5v-258q0 -34 -25 -34q-27 0 -27 34v257q0 43 -8.5 68t-32 37.5t-51 16t-78.5 3.5h-29z" />
    <glyph glyph-name="ograve" unicode="&#xf2;" horiz-adv-x="644" 
d="M337 0h-29q-115 0 -169 35.5t-54 140.5v109q0 105 54 140.5t169 35.5h29q115 0 168.5 -35.5t53.5 -140.5v-109q0 -105 -53.5 -140.5t-168.5 -35.5zM308 52h29q51 0 78.5 3.5t51 16t32 37.5t8.5 68v107q0 43 -8.5 68t-32 37.5t-51 16t-78.5 3.5h-29q-51 0 -78.5 -3.5
t-51.5 -16t-32.5 -37.5t-8.5 -68v-107q0 -43 8.5 -68t32.5 -37.5t51.5 -16t78.5 -3.5zM241 683q12 0 25 -15l96 -115q9 -11 9 -23q0 -11 -8 -18t-17 -7q-11 0 -25 15l-96 115q-9 11 -9 22t8 18.5t17 7.5z" />
    <glyph glyph-name="oacute" unicode="&#xf3;" horiz-adv-x="644" 
d="M337 0h-29q-115 0 -169 35.5t-54 140.5v109q0 105 54 140.5t169 35.5h29q115 0 168.5 -35.5t53.5 -140.5v-109q0 -105 -53.5 -140.5t-168.5 -35.5zM308 52h29q51 0 78.5 3.5t51 16t32 37.5t8.5 68v107q0 43 -8.5 68t-32 37.5t-51 16t-78.5 3.5h-29q-51 0 -78.5 -3.5
t-51.5 -16t-32.5 -37.5t-8.5 -68v-107q0 -43 8.5 -68t32.5 -37.5t51.5 -16t78.5 -3.5zM442 635l-96 -115q-14 -15 -25 -15q-8 0 -16.5 7.5t-8.5 17.5q0 12 9 23l96 115q14 15 25 15q9 0 17 -7.5t8 -18.5t-9 -22z" />
    <glyph glyph-name="ocircumflex" unicode="&#xf4;" horiz-adv-x="644" 
d="M187 558l105 132h59l107 -132q6 -8 6 -18q0 -23 -23 -23q-5 0 -9.5 2t-6 3.5t-6.5 7.5t-6 7l-91 96l-90 -96q-2 -2 -5 -6t-5 -5.5t-4.5 -4t-6 -3.5t-7.5 -1q-23 0 -23 23q0 10 6 18zM337 0h-29q-115 0 -169 35.5t-54 140.5v109q0 105 54 140.5t169 35.5h29
q115 0 168.5 -35.5t53.5 -140.5v-109q0 -105 -53.5 -140.5t-168.5 -35.5zM308 52h29q51 0 78.5 3.5t51 16t32 37.5t8.5 68v107q0 43 -8.5 68t-32 37.5t-51 16t-78.5 3.5h-29q-51 0 -78.5 -3.5t-51.5 -16t-32.5 -37.5t-8.5 -68v-107q0 -43 8.5 -68t32.5 -37.5t51.5 -16
t78.5 -3.5z" />
    <glyph glyph-name="otilde" unicode="&#xf5;" horiz-adv-x="644" 
d="M376 574q3 0 8 4l31 28q13 9 22 9q10 0 18 -6t8 -17q0 -14 -14 -27l-47 -39q-8 -8 -19 -8q-2 0 -4 0.5t-3.5 0.5t-2.5 1h-2l-98 36q-2 2 -6 2q-3 0 -8 -4l-31 -28q-13 -9 -22 -9t-17 6.5t-8 17.5q0 15 14 26l46 38q7 9 19 9q2 0 7 -1t6 -1l98 -36zM337 0h-29
q-115 0 -169 35.5t-54 140.5v109q0 105 54 140.5t169 35.5h29q115 0 168.5 -35.5t53.5 -140.5v-109q0 -105 -53.5 -140.5t-168.5 -35.5zM308 52h29q51 0 78.5 3.5t51 16t32 37.5t8.5 68v107q0 43 -8.5 68t-32 37.5t-51 16t-78.5 3.5h-29q-51 0 -78.5 -3.5t-51.5 -16
t-32.5 -37.5t-8.5 -68v-107q0 -43 8.5 -68t32.5 -37.5t51.5 -16t78.5 -3.5z" />
    <glyph glyph-name="odieresis" unicode="&#xf6;" horiz-adv-x="644" 
d="M337 0h-29q-115 0 -169 35.5t-54 140.5v109q0 105 54 140.5t169 35.5h29q115 0 168.5 -35.5t53.5 -140.5v-109q0 -105 -53.5 -140.5t-168.5 -35.5zM308 52h29q51 0 78.5 3.5t51 16t32 37.5t8.5 68v107q0 43 -8.5 68t-32 37.5t-51 16t-78.5 3.5h-29q-51 0 -78.5 -3.5
t-51.5 -16t-32.5 -37.5t-8.5 -68v-107q0 -43 8.5 -68t32.5 -37.5t51.5 -16t78.5 -3.5zM250 599q16 0 33.5 -12t17.5 -29t-17.5 -29t-33.5 -12q-17 0 -34 12t-17 29t17 29t34 12zM396 599q16 0 33.5 -12t17.5 -29t-17.5 -29t-33.5 -12q-17 0 -34 12t-17 29t17 29t34 12z" />
    <glyph glyph-name="ugrave" unicode="&#xf9;" horiz-adv-x="644" 
d="M336 52q85 0 128 45.5t43 132.5v204q0 34 26 34t26 -34v-406q0 -35 -24 -35q-28 0 -28 36v34q-59 -63 -171 -63h-29q-115 0 -168.5 35.5t-53.5 140.5v258q0 34 25 34q27 0 27 -34v-257q0 -43 8.5 -68t32 -37.5t51 -16t78.5 -3.5h29zM240 683q12 0 25 -15l96 -115
q9 -11 9 -23q0 -11 -8 -18t-17 -7q-11 0 -25 15l-96 115q-9 11 -9 22t8 18.5t17 7.5z" />
    <glyph glyph-name="uacute" unicode="&#xfa;" horiz-adv-x="644" 
d="M336 52q85 0 128 45.5t43 132.5v204q0 34 26 34t26 -34v-406q0 -35 -24 -35q-28 0 -28 36v34q-59 -63 -171 -63h-29q-115 0 -168.5 35.5t-53.5 140.5v258q0 34 25 34q27 0 27 -34v-257q0 -43 8.5 -68t32 -37.5t51 -16t78.5 -3.5h29zM443 635l-96 -115q-14 -15 -25 -15
q-8 0 -16.5 7.5t-8.5 17.5q0 12 9 23l96 115q14 15 25 15q9 0 17 -7.5t8 -18.5t-9 -22z" />
    <glyph glyph-name="ucircumflex" unicode="&#xfb;" horiz-adv-x="644" 
d="M186 565l105 132h59l107 -132q6 -8 6 -18q0 -23 -23 -23q-5 0 -9.5 2t-6 3.5t-6.5 7.5t-6 7l-91 96l-90 -96q-2 -2 -5 -6t-5 -5.5t-4.5 -4t-6 -3.5t-7.5 -1q-23 0 -23 23q0 10 6 18zM336 52q85 0 128 45.5t43 132.5v204q0 34 26 34t26 -34v-406q0 -35 -24 -35
q-28 0 -28 36v34q-59 -63 -171 -63h-29q-115 0 -168.5 35.5t-53.5 140.5v258q0 34 25 34q27 0 27 -34v-257q0 -43 8.5 -68t32 -37.5t51 -16t78.5 -3.5h29z" />
    <glyph glyph-name="udieresis" unicode="&#xfc;" horiz-adv-x="644" 
d="M336 52q85 0 128 45.5t43 132.5v204q0 34 26 34t26 -34v-406q0 -35 -24 -35q-28 0 -28 36v34q-59 -63 -171 -63h-29q-115 0 -168.5 35.5t-53.5 140.5v258q0 34 25 34q27 0 27 -34v-257q0 -43 8.5 -68t32 -37.5t51 -16t78.5 -3.5h29zM249 606q16 0 33.5 -12t17.5 -29
t-17.5 -29t-33.5 -12q-17 0 -34 12t-17 29t17 29t34 12zM395 606q16 0 33.5 -12t17.5 -29t-17.5 -29t-33.5 -12q-17 0 -34 12t-17 29t17 29t34 12z" />
    <glyph glyph-name="yacute" unicode="&#xfd;" horiz-adv-x="644" 
d="M559 -87q0 -65 -19 -91.5t-72 -26.5h-283q-32 0 -53.5 9.5t-31 27.5t-12.5 35t-3 40q0 35 26 35t26 -33q0 -35 12 -48.5t43 -13.5h269q29 0 37.5 10t8.5 40v166q-59 -63 -171 -63h-29q-115 0 -168.5 35.5t-53.5 140.5v258q0 34 25 34q27 0 27 -34v-257q0 -43 8.5 -68
t32 -37.5t51 -16t78.5 -3.5h29q85 0 128 45.5t43 132.5v204q0 34 26 34t26 -34v-521zM444 635l-96 -115q-14 -15 -25 -15q-8 0 -16.5 7.5t-8.5 17.5q0 12 9 23l96 115q14 15 25 15q9 0 17 -7.5t8 -18.5t-9 -22z" />
    <glyph glyph-name="AE" unicode="&#xc6;" horiz-adv-x="863" 
d="M443 332v-280h333q34 0 34 -28q0 -24 -34 -24h-361q-24 0 -24 36v163h-215l-123 -192q-15 -23 -33 -23q-20 0 -20 18q0 10 8 23l388 606q7 10 19 10h361q34 0 34 -28q0 -24 -34 -24h-333v-205h214q36 0 36 -28q0 -24 -36 -24h-214zM391 251v282l-181 -282h181z" />
    <glyph glyph-name="Eth" unicode="&#xd0;" horiz-adv-x="644" 
d="M497 180v286q0 82 -35 105t-129 23h-196v-243h104q34 0 34 -27q0 -26 -34 -26h-104v-246h190q98 0 134 22.5t36 105.5zM549 466v-286q0 -108 -53.5 -144t-168.5 -36h-218q-24 0 -24 36v262q-32 0 -32 28q0 25 32 25v259q0 36 24 36h224q54 0 90 -6.5t66.5 -25.5t45 -55.5
t14.5 -92.5z" />
    <glyph glyph-name="multiply" unicode="&#xd7;" horiz-adv-x="488" 
d="M69 382q0 9 7 16.5t17 7.5q12 0 24 -12l127 -128l128 127q12 12 24 12q9 0 16.5 -7t7.5 -17q0 -12 -12 -24l-128 -127l127 -128q13 -11 13 -24q0 -9 -7.5 -16.5t-17.5 -7.5q-12 0 -24 12l-127 128l-128 -127q-11 -13 -24 -13q-9 0 -16.5 7.5t-7.5 17.5q0 12 12 24
l128 127l-127 128q-12 12 -12 24z" />
    <glyph glyph-name="Oslash" unicode="&#xd8;" 
d="M317 593q-86 0 -133 -50t-47 -139v-182q0 -70 28 -114l270 450q-47 35 -118 35zM495 638q7 0 16.5 -6t9.5 -19q0 -8 -6 -20l-17 -27q51 -62 51 -158v-180q0 -110 -65 -173.5t-167 -63.5q-85 0 -141 42l-10 -16q-10 -19 -26 -19q-7 0 -16 6t-9 18q0 9 6 21l15 25
q-51 62 -51 160v180q0 111 65 174t167 63q87 0 143 -43l10 17q9 19 25 19zM497 414q0 69 -27 112l-270 -449q46 -34 117 -34q86 0 133 49.5t47 139.5v182z" />
    <glyph glyph-name="Thorn" unicode="&#xde;" horiz-adv-x="570" 
d="M137 466h175q82 0 128 -39t46 -114t-46.5 -114.5t-128.5 -39.5h-174v-134q0 -32 -27 -32q-25 0 -25 32v548q0 33 26 33t26 -33v-107zM267 414h-130v-206h129q94 0 130.5 19.5t36.5 83.5q0 62 -36.5 82.5t-129.5 20.5z" />
    <glyph glyph-name="germandbls" unicode="&#xdf;" horiz-adv-x="561" 
d="M216 353v51q44 0 74.5 11.5t44 30.5t19 37t5.5 39q0 28 -21.5 45t-59.5 17q-58 0 -84 -22.5t-26 -100.5v-432q0 -36 -28 -36q-24 0 -24 36v381q-31 2 -31 27q0 22 31 24q1 54 15 90.5t39 54t50 24t58 6.5q64 0 98.5 -34.5t34.5 -81.5q0 -89 -74 -137q142 -41 142 -187
q0 -117 -44.5 -166.5t-106.5 -49.5q-44 0 -83.5 29t-39.5 82q0 36 28 36t28 -34q0 -33 23 -47t53 -14q36 0 63 35.5t27 129.5q0 26 -9 51t-30.5 50t-65.5 40t-106 15z" />
    <glyph glyph-name="ae" unicode="&#xe6;" horiz-adv-x="994" 
d="M308 243q-51 0 -78.5 -3.5t-51.5 -16t-32.5 -37.5t-8.5 -68q0 -26 17 -46t38 -20h93q84 0 127 45.5t43 130.5v15h-147zM687 409h-8q-96 0 -133 -21t-38 -93h349q-1 72 -38 93t-132 21zM909 285v-42h-401v-66q0 -43 8.5 -68t32.5 -37.5t51.5 -16t78.5 -3.5h123
q32 0 43.5 14t11.5 48q0 33 26 33t26 -36q0 -23 -3 -40t-12.5 -34.5t-31 -27t-53.5 -9.5h-130q-83 0 -132.5 16.5t-72.5 61.5q-27 -36 -83.5 -57t-105.5 -21h-93q-47 0 -77 33.5t-30 89.5q0 101 54.5 136.5t168.5 35.5h147v57q0 31 -11.5 44t-43.5 13h-141q-122 0 -122 -60
q0 -35 -27 -35q-25 0 -25 35q0 58 46 85t121 27h155q71 0 90 -47q46 47 182 47h8q115 0 168.5 -35.5t53.5 -140.5z" />
    <glyph glyph-name="eth" unicode="&#xf0;" 
d="M191 583q-31 0 -31 25q0 28 31 28q71 0 135 -26l33 32q14 12 26 12q9 0 17.5 -7t8.5 -17q0 -12 -13 -25l-21 -20q172 -106 172 -363q0 -98 -58 -168t-158 -70q-110 0 -179 63t-69 173q0 111 69 173.5t179 62.5q76 0 126 -39q-41 87 -122 129l-50 -47q-12 -12 -24 -12
q-9 0 -18.5 7.5t-9.5 17.5t14 24l34 32q-44 15 -92 15zM497 221q0 76 -41 129.5t-123 53.5q-90 0 -143 -51.5t-53 -132.5t53 -132.5t143 -51.5q80 0 122 58t42 127z" />
    <glyph glyph-name="divide" unicode="&#xf7;" horiz-adv-x="439" 
d="M60 231q0 26 31 26h245q34 0 34 -28q0 -11 -9.5 -18t-24.5 -7h-245q-31 0 -31 27zM211 169q16 0 33.5 -12t17.5 -29t-17.5 -29t-33.5 -12q-17 0 -34 12t-17 29t17 29t34 12zM211 374q16 0 33.5 -12t17.5 -29t-17.5 -29t-33.5 -12q-17 0 -34 12t-17 29t17 29t34 12z" />
    <glyph glyph-name="oslash" unicode="&#xf8;" horiz-adv-x="644" 
d="M515 469q10 0 18 -7t8 -18q0 -8 -10 -23l-9 -10q37 -42 37 -126v-109q0 -105 -53.5 -140.5t-168.5 -35.5h-29q-96 0 -142 19l-11 -12q-13 -15 -25 -15q-8 0 -17 7.5t-9 17.5q0 9 11 23l8 9q-38 43 -38 127v109q0 105 54 140.5t169 35.5h29q99 0 143 -21l10 14
q12 15 25 15zM308 52h29q98 0 134 22.5t36 105.5v111q0 61 -19 89l-287 -319q33 -9 107 -9zM137 170q0 -61 20 -90l287 320q-33 9 -107 9h-29q-99 0 -135 -22.5t-36 -105.5v-111z" />
    <glyph glyph-name="thorn" unicode="&#xfe;" horiz-adv-x="644" 
d="M507 284q0 43 -8.5 68t-32 37.5t-51 16t-78.5 3.5h-29q-171 0 -171 -177v-180h201q98 0 133.5 22t35.5 103v107zM559 176q0 -105 -53.5 -140.5t-167.5 -35.5h-201v-147q0 -35 -28 -35q-24 0 -24 35v755q0 35 26 35t26 -35v-210q59 63 171 63h29q115 0 168.5 -35.5
t53.5 -140.5v-109z" />
    <glyph glyph-name="currency" unicode="&#xa4;" horiz-adv-x="478" 
d="M135 230q0 -43 31 -73.5t74 -30.5t73.5 30.5t30.5 73.5t-30.5 74t-73.5 31q-44 0 -74.5 -30.5t-30.5 -74.5zM91 230q0 48 26 85l-45 45q-12 14 -12 24q0 9 8.5 17t16.5 8q10 0 24 -12l45 -45q38 27 86 27t85 -27l44 45q13 12 25 12q8 0 16.5 -6.5t8.5 -17.5
q0 -13 -14 -25l-44 -45q27 -36 27 -85q0 -48 -27 -85l44 -44q14 -14 14 -24q0 -8 -8.5 -17t-17.5 -9q-11 0 -24 14l-44 44q-37 -27 -85 -27t-86 27l-45 -44q-12 -14 -25 -14q-8 0 -16 7t-8 18q0 12 12 25l45 45q-26 37 -26 84z" />
    <glyph glyph-name="yen" unicode="&#xa5;" horiz-adv-x="595" 
d="M68 601q-8 12 -8 22q0 11 8 18t17 7q11 0 25 -18l188 -267l187 267q12 18 26 18q8 0 16.5 -7.5t8.5 -17.5t-8 -22l-204 -293v-31h94q33 0 33 -27q0 -25 -33 -25h-94v-37h94q33 0 33 -27q0 -25 -33 -25h-94v-116q0 -32 -26 -32q-25 0 -25 32v116h-100q-32 0 -32 27
q0 25 32 25h100v37h-100q-32 0 -32 27q0 25 32 25h100v31z" />
    <glyph glyph-name="brokenbar" unicode="&#xa6;" horiz-adv-x="171" 
d="M86 648q25 0 25 -32v-215q0 -33 -27 -33q-24 0 -24 33v215q0 32 26 32zM86 268q25 0 25 -31v-215q0 -34 -27 -34q-24 0 -24 34v215q0 31 26 31z" />
    <glyph glyph-name="section" unicode="&#xa7;" horiz-adv-x="614" 
d="M447 194q46 -27 46 -95q0 -104 -105 -104h-184q-49 0 -65 24.5t-16 66.5q0 30 27 30q11 0 18 -8t7 -20q0 -26 7 -33.5t33 -7.5h184q24 0 33 12t9 40q0 65 -39 70l-175 25q-104 14 -104 112q0 71 46 94q-46 27 -46 95q0 104 105 104h185q34 0 52.5 -14.5t23 -32t4.5 -44.5
q0 -30 -26 -30q-12 0 -19 8t-7 20q0 26 -7 33.5t-33 7.5h-184q-24 0 -33 -12.5t-9 -39.5q0 -65 39 -70l175 -25q104 -14 104 -111q0 -72 -46 -95zM175 306q0 -40 52.5 -60t132.5 -20q52 0 66.5 10t14.5 53q0 42 -56.5 60.5t-128.5 18.5q-52 0 -66.5 -10t-14.5 -52z" />
    <glyph glyph-name="copyright" unicode="&#xa9;" horiz-adv-x="614" 
d="M407 363q0 -17 -21 -17q-18 0 -18 15q0 11 -3.5 15t-14.5 4h-48q-24 0 -39.5 -11.5t-15.5 -31.5v-39q0 -20 15.5 -31.5t39.5 -11.5h48q16 0 17.5 13.5t5.5 16.5q5 4 13 4t14.5 -5t6.5 -12q0 -21 -12 -39.5t-43 -18.5h-50q-39 0 -67 21.5t-28 62.5v39q0 41 28 62.5
t67 21.5h50q30 0 42.5 -18t12.5 -40zM293 82q-53 0 -88.5 6.5t-65.5 25.5t-44.5 55.5t-14.5 92.5v111q0 56 14.5 92.5t44.5 55.5t65.5 25.5t88.5 6.5h29q108 0 160 -36.5t52 -143.5v-111q0 -107 -52 -143.5t-160 -36.5h-29zM293 134h29q91 0 125.5 23t34.5 105v111
q0 82 -34.5 105t-125.5 23h-29q-92 0 -126.5 -23t-34.5 -105v-111q0 -82 34.5 -105t126.5 -23z" />
    <glyph glyph-name="ordfeminine" unicode="&#xaa;" horiz-adv-x="369" 
d="M60 182q0 22 26 22h196q28 0 28 -24q0 -21 -28 -21h-196q-26 0 -26 23zM244 349h-57q-35 0 -48 -7.5t-13 -32.5q0 -9 5.5 -16.5t13.5 -7.5h37q59 0 62 64zM265 241q-21 0 -21 17v12q-18 -26 -62 -26h-37q-26 0 -43 20.5t-17 46.5q0 45 25 62t77 17h57v14q0 12 -4 16.5
t-16 4.5h-79q-12 0 -15.5 -4.5t-3.5 -13t-2 -11.5q-8 -9 -18 -9q-21 0 -21 17q0 26 16 44t41 18h85q58 0 58 -69v-139q-2 -17 -20 -17z" />
    <glyph glyph-name="ordmasculine" unicode="&#xba;" horiz-adv-x="369" 
d="M180 285h9q34 0 44.5 8t10.5 40v44q0 32 -10.5 40t-44.5 8h-9q-34 0 -44 -8t-10 -40v-44q0 -32 10 -40t44 -8zM180 244q-54 0 -74.5 18.5t-20.5 70.5v44q0 52 21 70.5t74 18.5h9q54 0 75 -18.5t21 -70.5v-44q0 -52 -21 -70.5t-75 -18.5h-9zM60 182q0 22 26 22h196
q28 0 28 -24q0 -21 -28 -21h-196q-26 0 -26 23z" />
    <glyph glyph-name="registered" unicode="&#xae;" horiz-adv-x="614" 
d="M293 134h29q91 0 125.5 23t34.5 105v111q0 82 -34.5 105t-125.5 23h-29q-92 0 -126.5 -23t-34.5 -105v-111q0 -82 34.5 -105t126.5 -23zM293 82q-53 0 -88.5 6.5t-65.5 25.5t-44.5 55.5t-14.5 92.5v111q0 56 14.5 92.5t44.5 55.5t65.5 25.5t88.5 6.5h29q108 0 160 -36.5
t52 -143.5v-111q0 -107 -52 -143.5t-160 -36.5h-29zM418 217q0 -6 -6.5 -10t-13.5 -4q-9 0 -15 4.5t-6 8.5q-3 12 -21 40t-41 42h-71v-81q0 -14 -21 -14q-8 0 -14 4t-6 10v194q0 6 6 10.5t13 4.5h84q109 0 109 -65q0 -20 -13 -36.5t-35 -23.5q14 -12 32.5 -41.5t18.5 -42.5z
M306 339q39 0 53.5 4t14.5 18q0 15 -14 19.5t-54 4.5h-62v-46h62z" />
    <glyph glyph-name="quotesinglbase" unicode="&#x201a;" horiz-adv-x="191" 
d="M71 -84q-22 0 -22 17q0 5 13.5 34t13.5 74q0 26 35 26q31 0 31 -26q0 -47 -27 -86t-44 -39z" />
    <glyph glyph-name="Euro" unicode="&#x20ac;" horiz-adv-x="614" 
d="M534 529q0 -35 -26 -35t-26 33q0 35 -12 48.5t-43 13.5h-56q-84 0 -130 -46.5t-46 -133.5v-5h194q34 0 34 -27q0 -26 -34 -26h-194v-65h194q34 0 34 -28q0 -25 -34 -25h-194v-6q0 -88 46 -134t130 -46h56q32 0 43.5 14t11.5 48q0 33 26 33t26 -36q0 -23 -3 -40
t-12.5 -34.5t-31 -27t-53.5 -9.5h-63q-101 0 -164.5 60.5t-63.5 171.5v6h-31q-32 0 -32 27q0 26 32 26h31v65h-31q-32 0 -32 28q0 25 32 25h31v5q0 111 63.5 171.5t164.5 60.5h63q32 0 53.5 -9.5t31 -27t12.5 -34.5t3 -41z" />
    <glyph glyph-name="quotedblbase" unicode="&#x201e;" horiz-adv-x="314" 
d="M194 -84q-22 0 -22 17q0 5 13.5 34t13.5 74q0 26 35 26q31 0 31 -26q0 -47 -27 -86t-44 -39zM71 -84q-22 0 -22 17q0 5 13.5 34t13.5 74q0 26 35 26q31 0 31 -26q0 -47 -27 -86t-44 -39z" />
    <glyph glyph-name="ellipsis" unicode="&#x2026;" horiz-adv-x="508" 
d="M397 70q16 0 33.5 -12t17.5 -29t-17.5 -29t-33.5 -12q-17 0 -34 12t-17 29t17 29t34 12zM254 70q16 0 33.5 -12t17.5 -29t-17.5 -29t-33.5 -12q-17 0 -34 12t-17 29t17 29t34 12zM111 70q16 0 33.5 -12t17.5 -29t-17.5 -29t-33.5 -12q-17 0 -34 12t-17 29t17 29t34 12z
" />
    <glyph glyph-name="florin" unicode="&#x192;" horiz-adv-x="428" 
d="M141 46q0 -93 -34 -122t-115 -29q-36 0 -36 27q0 25 36 25t52 2.5t27 17t12.5 36t1.5 70.5v337q-31 2 -31 26q0 23 31 25q1 55 16.5 91t47.5 53.5t68.5 24t90.5 6.5q36 0 36 -28q0 -24 -36 -24q-93 0 -129.5 -22t-37.5 -101h144q36 0 36 -28q0 -24 -36 -24h-144v-363z
" />
    <glyph glyph-name="dagger" unicode="&#x2020;" horiz-adv-x="340" 
d="M60 507q0 25 32 25h53v84q0 33 26 33q25 0 25 -33v-84h53q32 0 32 -26t-32 -26h-53v-283q0 -33 -26 -33q-25 0 -25 33v283h-53q-32 0 -32 27z" />
    <glyph glyph-name="daggerdbl" unicode="&#x2021;" horiz-adv-x="340" 
d="M249 331q32 0 32 -27q0 -25 -32 -25h-53v-84q0 -33 -26 -33q-25 0 -25 33v84h-53q-32 0 -32 26t32 26h53v149h-53q-32 0 -32 27q0 25 32 25h53v84q0 33 26 33q25 0 25 -33v-84h53q32 0 32 -26t-32 -26h-53v-149h53z" />
    <glyph glyph-name="circumflex" unicode="&#x2c6;" horiz-adv-x="402" 
d="M66 546l105 132h59l107 -132q6 -8 6 -18q0 -23 -23 -23q-5 0 -9.5 2t-6 3.5t-6.5 7.5t-6 7l-91 96l-90 -96q-2 -2 -5 -6t-5 -5.5t-4.5 -4t-6 -3.5t-7.5 -1q-23 0 -23 23q0 10 6 18z" />
    <glyph glyph-name="perthousand" unicode="&#x2030;" horiz-adv-x="645" 
d="M323 183q0 -12 9 -21t21 -9q13 0 21.5 9t8.5 21q0 13 -8.5 21.5t-21.5 8.5q-12 0 -21 -8.5t-9 -21.5zM353 265q34 0 58 -24t24 -58t-24 -58t-58 -24t-58 24t-24 58t24 58t58 24zM499 183q0 -12 8.5 -21t20.5 -9q13 0 21.5 9t8.5 21q0 13 -9 21.5t-21 8.5t-20.5 -8.5
t-8.5 -21.5zM528 265q34 0 58 -24t24 -58t-24 -58t-58 -24t-57.5 24t-23.5 58t23.5 58t57.5 24zM100 471q0 -12 9 -21t21 -9q11 0 20.5 8.5t9.5 21.5t-9.5 21.5t-20.5 8.5q-12 0 -21 -9t-9 -21zM130 553q34 0 57.5 -24t23.5 -58t-23.5 -58t-57.5 -24t-58.5 24t-24.5 58
t24.5 58t58.5 24zM447 508q0 -11 -12 -24l-350 -351q-13 -12 -25 -12q-8 0 -16.5 7.5t-8.5 17.5q0 12 12 25l351 350q13 12 24 12q8 0 16.5 -7.5t8.5 -17.5z" />
    <glyph glyph-name="Scaron" unicode="&#x160;" horiz-adv-x="616" 
d="M348 675h-56l-104 109q-7 7 -7 15q0 20 23 20q12 0 32 -17l84 -70l84 70q20 17 32 17q23 0 23 -20q0 -8 -7 -15zM137 481q0 -40 17.5 -68.5t42.5 -33.5l237 -51q67 -15 97 -62t30 -110q0 -67 -39.5 -115.5t-130.5 -48.5h-83q-57 0 -94 6.5t-68.5 25t-46 55t-14.5 93.5
q0 33 28 33q25 0 25 -33q0 -83 35.5 -105.5t134.5 -22.5h102q53 0 76 36t23 77q0 49 -19.5 79.5t-40.5 35.5l-235 52q-70 15 -99.5 52.5t-29.5 105.5q0 67 41 114.5t136 47.5h76q57 0 93.5 -6.5t68.5 -24.5t46.5 -54t14.5 -93q0 -33 -27 -33q-26 0 -26 33q0 83 -35 104.5
t-135 21.5h-98q-54 0 -78.5 -35t-24.5 -76z" />
    <glyph glyph-name="Zcaron" unicode="&#x17d;" 
d="M349 675h-56l-104 109q-7 7 -7 15q0 20 23 20q12 0 32 -17l84 -70l84 70q20 17 32 17q23 0 23 -20q0 -8 -7 -15zM86 0v51l401 543h-366q-36 0 -36 26t36 26h428v-53l-399 -541h364q35 0 35 -27q0 -25 -35 -25h-428z" />
    <glyph glyph-name="scaron" unicode="&#x161;" 
d="M185 0q-32 0 -53.5 9.5t-31 27t-12.5 34.5t-3 40q0 36 26 36t26 -33q0 -34 11.5 -48t43.5 -14h248q59 0 59 74q0 37 -16.5 60.5t-42.5 23.5h-226q-129 0 -129 130q0 60 31 90.5t108 30.5h225q32 0 53.5 -9.5t31 -27.5t12.5 -35t3 -40q0 -35 -26 -35t-26 33q0 35 -12 48.5
t-43 13.5h-246q-59 0 -59 -69q0 -38 16.5 -58t42.5 -20h227q70 0 99 -39t29 -97q0 -62 -31.5 -94t-106.5 -32h-228z" />
    <glyph glyph-name="zcaron" unicode="&#x17e;" horiz-adv-x="611" 
d="M152 52h267q36 0 46 18t10 59q0 36 26 36t26 -36q0 -70 -21 -99.5t-79 -29.5h-342v64l357 345h-250q-35 0 -45 -18t-10 -59q0 -36 -27 -36q-25 0 -25 36q0 71 21 100t79 29h321v-67z" />
    <glyph glyph-name="Ydieresis" unicode="&#x178;" horiz-adv-x="615" 
d="M282 308l-209 289q-8 12 -8 21q0 11 8 18t17 7q11 0 25 -18l193 -267l192 267q13 18 26 18q8 0 16.5 -7.5t8.5 -17.5q0 -9 -8 -21l-208 -289v-284q0 -31 -27 -31q-26 0 -26 31v284zM236 784q16 0 33.5 -12t17.5 -29t-17.5 -29t-33.5 -12q-17 0 -34 12t-17 29t17 29t34 12
zM382 784q16 0 33.5 -12t17.5 -29t-17.5 -29t-33.5 -12q-17 0 -34 12t-17 29t17 29t34 12z" />
    <glyph glyph-name="OE" unicode="&#x152;" horiz-adv-x="747" 
d="M383 620q4 16 22 16h243q35 0 35 -24q0 -27 -35 -27h-214v-201h95q36 0 36 -28q0 -24 -36 -24h-95v-280h214q35 0 35 -28q0 -24 -35 -24h-239q-20 0 -24 15q-47 -24 -108 -24q-77 0 -144.5 65.5t-67.5 171.5v180q0 106 67 171.5t143 65.5q62 0 108 -25zM277 43
q67 0 105 33v484q-36 33 -107 33q-60 0 -109.5 -51.5t-49.5 -134.5v-178q0 -83 50 -134.5t111 -51.5z" />
    <glyph glyph-name="oe" unicode="&#x153;" horiz-adv-x="754" 
d="M527 409q-59 0 -85.5 -21t-27.5 -91h224q-1 70 -27 91t-84 21zM237 409q-75 0 -97.5 -29t-22.5 -96v-107q0 -67 22.5 -96t97.5 -29q77 0 101 29.5t24 95.5v107q0 66 -24 95.5t-101 29.5zM237 0q-94 0 -133 42t-39 134v109q0 91 39 133.5t133 42.5q106 0 150 -65
q39 65 140 65q36 0 62.5 -7t51 -24.5t37 -54t12.5 -90.5v-40h-276v-68q0 -41 12 -68t34.5 -38.5t41.5 -15t44 -3.5q92 0 92 62q0 33 25 33q27 0 27 -36q0 -29 -9 -50t-22.5 -32.5t-34 -18t-38 -8.5t-40.5 -2q-118 0 -157 68q-21 -35 -56 -51.5t-96 -16.5z" />
    <glyph glyph-name="quotedblright" unicode="&#x201d;" horiz-adv-x="314" 
d="M194 530q-22 0 -22 17q0 5 13.5 34t13.5 74q0 26 35 26q31 0 31 -26q0 -47 -27 -86t-44 -39zM71 530q-22 0 -22 17q0 5 13.5 34t13.5 74q0 26 35 26q31 0 31 -26q0 -47 -27 -86t-44 -39z" />
    <glyph glyph-name="quoteright" unicode="&#x2019;" horiz-adv-x="191" 
d="M71 530q-22 0 -22 17q0 5 13.5 34t13.5 74q0 26 35 26q31 0 31 -26q0 -47 -27 -86t-44 -39z" />
    <glyph glyph-name="tilde" unicode="&#x2dc;" horiz-adv-x="401" 
d="M255 234q3 0 8 4l31 28q13 9 22 9q10 0 18 -6t8 -17q0 -14 -14 -27l-47 -39q-8 -8 -19 -8q-2 0 -4 0.5t-3.5 0.5t-2.5 1h-2l-98 36q-2 2 -6 2q-3 0 -8 -4l-31 -28q-13 -9 -22 -9t-17 6.5t-8 17.5q0 15 14 26l46 38q7 9 19 9q2 0 7 -1t6 -1l98 -36z" />
    <glyph glyph-name="quoteleft" unicode="&#x2018;" horiz-adv-x="185" 
d="M121 681q21 0 21 -17q0 -6 -13 -35.5t-13 -73.5q0 -11 -10 -18t-25 -7q-32 0 -32 25q0 45 26.5 85.5t45.5 40.5z" />
    <glyph glyph-name="quotedblleft" unicode="&#x201c;" horiz-adv-x="314" 
d="M244 681q21 0 21 -17q0 -6 -13 -35.5t-13 -73.5q0 -11 -10 -18t-25 -7q-32 0 -32 25q0 45 26.5 85.5t45.5 40.5zM121 681q21 0 21 -17q0 -6 -13 -35.5t-13 -73.5q0 -11 -10 -18t-25 -7q-32 0 -32 25q0 45 26.5 85.5t45.5 40.5z" />
    <glyph glyph-name="bullet" unicode="&#x2022;" horiz-adv-x="440" 
d="M220 398q58 0 99 -41t41 -99t-41 -99t-99 -41t-99 41t-41 99t41 99t99 41z" />
    <glyph glyph-name="endash" unicode="&#x2013;" horiz-adv-x="497" 
d="M60 231q0 26 31 26h313q34 0 34 -28q0 -25 -34 -25h-313q-31 0 -31 27z" />
    <glyph glyph-name="emdash" unicode="&#x2014;" horiz-adv-x="614" 
d="M60 231q0 26 31 26h430q34 0 34 -28q0 -25 -34 -25h-430q-31 0 -31 27z" />
    <glyph glyph-name="trademark" unicode="&#x2122;" horiz-adv-x="616" 
d="M427 402q-13 0 -17 9l-71 164v-139q0 -34 -26 -34t-26 34v218q0 36 27 36q22 0 31 -20l82 -182l82 183q9 19 31 19q27 0 27 -36v-217q0 -35 -26 -35t-26 35v138l-71 -164q-9 -9 -17 -9zM263 656q0 -25 -33 -25h-48v-197q0 -32 -26 -32t-26 32v197h-48q-33 0 -33 26t33 26
h148q33 0 33 -27z" />
    <glyph glyph-name="guilsinglleft" unicode="&#x2039;" horiz-adv-x="362" 
d="M78 358l182 169q8 8 23 8q20 0 20 -20q0 -17 -14 -32l-155 -150l155 -151q14 -15 14 -32q0 -20 -20 -20q-16 0 -23 7l-182 169q-18 14 -18 27q0 9 18 25z" />
    <glyph glyph-name="guilsinglright" unicode="&#x203a;" horiz-adv-x="362" 
d="M285 358q18 -16 18 -25q0 -13 -18 -27l-182 -169q-7 -7 -23 -7q-20 0 -20 20q0 17 14 32l155 151l-155 150q-14 15 -14 32q0 20 20 20q15 0 23 -8z" />
    <glyph glyph-name="guillemotleft" unicode="&#xab;" horiz-adv-x="516" 
d="M232 358l182 169q8 8 23 8q20 0 20 -20q0 -17 -14 -32l-155 -150l155 -151q14 -15 14 -32q0 -20 -20 -20q-16 0 -23 7l-182 169q-18 14 -18 27q0 9 18 25zM78 358l182 169q8 8 23 8q20 0 20 -20q0 -17 -14 -32l-155 -150l155 -151q14 -15 14 -32q0 -20 -20 -20
q-16 0 -23 7l-182 169q-18 14 -18 27q0 9 18 25z" />
    <glyph glyph-name="guillemotright" unicode="&#xbb;" horiz-adv-x="516" 
d="M439 358q18 -16 18 -25q0 -13 -18 -27l-182 -169q-7 -7 -23 -7q-20 0 -20 20q0 17 14 32l155 151l-155 150q-14 15 -14 32q0 20 20 20q15 0 23 -8zM285 358q18 -16 18 -25q0 -13 -18 -27l-182 -169q-7 -7 -23 -7q-20 0 -20 20q0 17 14 32l155 151l-155 150q-14 15 -14 32
q0 20 20 20q15 0 23 -8z" />
    <glyph glyph-name="logicalnot" unicode="&#xac;" horiz-adv-x="482" 
d="M423 141q0 -33 -28 -33q-25 0 -25 33v63h-279q-31 0 -31 27q0 26 31 26h298q34 0 34 -32v-84z" />
    <glyph glyph-name="uni00AD" unicode="&#xad;" horiz-adv-x="429" 
d="M60 231q0 26 31 26h245q34 0 34 -28q0 -11 -9.5 -18t-24.5 -7h-245q-31 0 -31 27z" />
    <glyph glyph-name="macron" unicode="&#xaf;" horiz-adv-x="429" 
d="M60 700q0 26 31 26h245q34 0 34 -28q0 -11 -9.5 -18t-24.5 -7h-245q-31 0 -31 27z" />
    <glyph glyph-name="degree" unicode="&#xb0;" horiz-adv-x="456" 
d="M131 535q0 -40 28.5 -69t68.5 -29t69 28.5t29 69.5q0 40 -29 68.5t-69 28.5t-68.5 -28.5t-28.5 -68.5zM228 683q61 0 105 -43.5t44 -104.5t-43.5 -105t-105.5 -44q-61 0 -104.5 44t-43.5 105t43.5 104.5t104.5 43.5z" />
    <glyph glyph-name="plusminus" unicode="&#xb1;" horiz-adv-x="562" 
d="M503 25q0 -11 -9.5 -18t-24.5 -7h-378q-31 0 -31 28q0 25 31 25h378q34 0 34 -28zM281 111q-26 0 -26 32v122h-164q-31 0 -31 28q0 25 31 25h164v122q0 33 27 33q25 0 25 -33v-122h162q34 0 34 -27q0 -26 -34 -26h-162v-122q0 -32 -26 -32z" />
    <glyph glyph-name="uni00B5" unicode="&#xb5;" horiz-adv-x="585" 
d="M454 228v210q0 35 25 35q27 0 27 -35v-414q0 -36 -25 -36q-27 0 -27 36v34q-59 -63 -161 -63t-161 63v-227q0 -36 -28 -36q-24 0 -24 36v607q0 35 25 35q27 0 27 -35v-210q0 -88 41.5 -134.5t119.5 -46.5q77 0 119 46.5t42 134.5z" />
    <glyph glyph-name="periodcentered" unicode="&#xb7;" horiz-adv-x="221" 
d="M111 428q16 0 33.5 -12t17.5 -29t-17.5 -29t-33.5 -12q-17 0 -34 12t-17 29t17 29t34 12z" />
    <glyph glyph-name="tsecyrillic" unicode="&#x446;" horiz-adv-x="620" 
d="M537 -57q0 -35 -26 -35t-26 35v57h-402v434q0 34 25 34q27 0 27 -34v-382h292v382q0 34 26 34t26 -34v-382h7q51 0 51 -57v-52z" />
    <glyph glyph-name="checyrillic" unicode="&#x447;" 
d="M332 180q81 0 123 46t42 133v75q0 34 26 34t26 -34v-406q0 -35 -24 -35q-28 0 -28 35v163q-59 -63 -165 -63h-31q-110 0 -163 35.5t-53 141.5v129q0 34 25 34q27 0 27 -34v-128q0 -81 35 -103.5t129 -22.5h31z" />
    <glyph glyph-name="Ocyrillic" unicode="&#x41e;" horiz-adv-x="624" 
d="M317 -9q-102 0 -167 63t-65 174v180q0 111 65 174t167 63t167 -63.5t65 -173.5v-180q0 -110 -65 -173.5t-167 -63.5zM317 593q-86 0 -133 -49t-47 -137v-178q0 -88 47 -137t133 -49t133 49t47 137v178q0 88 -47 137t-133 49z" />
    <glyph glyph-name="Ljecyrillic" unicode="&#x409;" horiz-adv-x="992" 
d="M551 354v-309h143q81 0 122 42t41 113q0 69 -41.5 111.5t-122.5 42.5h-142zM551 406h142q98 0 157 -56.5t59 -149.5t-58.5 -150t-156.5 -57h-168q-27 0 -27 35v556h-208q-36 0 -50.5 -14t-14.5 -45v-398q0 -79 -27 -103t-80 -24q-36 0 -36 27q0 24 36 24q32 0 43.5 13
t11.5 45v400q0 70 22.5 98.5t87.5 28.5h267v-230z" />
    <glyph glyph-name="ydieresis" unicode="&#xff;" horiz-adv-x="644" 
d="M249 611q16 0 33.5 -12t17.5 -29t-17.5 -29t-33.5 -12q-17 0 -34 12t-17 29t17 29t34 12zM395 611q16 0 33.5 -12t17.5 -29t-17.5 -29t-33.5 -12q-17 0 -34 12t-17 29t17 29t34 12zM559 -87q0 -65 -19 -91.5t-72 -26.5h-283q-32 0 -53.5 9.5t-31 27.5t-12.5 35t-3 40
q0 35 26 35t26 -33q0 -35 12 -48.5t43 -13.5h269q29 0 37.5 10t8.5 40v166q-59 -63 -171 -63h-29q-115 0 -168.5 35.5t-53.5 140.5v258q0 34 25 34q27 0 27 -34v-257q0 -43 8.5 -68t32 -37.5t51 -16t78.5 -3.5h29q85 0 128 45.5t43 132.5v204q0 34 26 34t26 -34v-521z" />
    <glyph glyph-name="twosuperior" unicode="&#xb2;" horiz-adv-x="311" 
d="M273 477q0 -6 -8.5 -13.5t-18.5 -7.5h-208v27q0 36 20 64.5t48 45.5t56 31t48 28.5t20 29.5q0 32 -16 39.5t-66 7.5h-26q-38 0 -38 -26q0 -10 -7 -16.5t-16 -6.5q-8 0 -15.5 6.5t-7.5 16.5q0 30 24 49.5t56 19.5h30q31 0 50 -2.5t38 -11t28 -27.5t9 -49
q0 -28 -28.5 -53.5t-62.5 -41t-64 -39t-33 -49.5h161q11 -1 19 -7.5t8 -14.5z" />
    <glyph glyph-name="threesuperior" unicode="&#xb3;" horiz-adv-x="299" 
d="M144 729q-23 0 -41.5 -8t-18.5 -20q0 -18 -24 -18q-22 0 -22 20q0 24 28.5 46.5t73.5 22.5h12q59 0 84 -20.5t25 -67.5q0 -41 -59 -66q23 -10 41 -30.5t18 -47.5q0 -44 -25 -64t-84 -20h-12q-45 0 -73.5 22.5t-28.5 46.5q0 20 22 20q24 0 24 -18q0 -12 18.5 -20t41.5 -8
h12q40 0 51.5 10t11.5 32q0 21 -28.5 38t-58.5 17q-12 0 -17.5 7t-5.5 15q0 9 6.5 15t16.5 6q30 0 58.5 14t28.5 34q0 14 -3 22t-17.5 14t-42.5 6h-12z" />
    <glyph glyph-name="onesuperior" unicode="&#xb9;" horiz-adv-x="294" 
d="M105 685q-10 -12 -24 -12q-9 0 -14.5 6t-5.5 13q0 12 12 22l48 50q13 11 23 11q8 0 15.5 -5.5t7.5 -18.5v-271q0 -27 -22 -27t-22 27v223z" />
    <glyph glyph-name="onequarter" unicode="&#xbc;" horiz-adv-x="624" 
d="M535 519q0 -12 -12 -24l-409 -410q-13 -12 -25 -12q-20 0 -20 20q0 12 12 25l410 409q12 12 24 12q20 0 20 -20zM496 95v-77q0 -27 -22 -27t-22 27v77h-132v52l122 163h54v-172h44q26 0 26 -21q0 -22 -26 -22h-44zM452 138v118l-88 -118h88zM159 551q-10 -12 -24 -12
q-9 0 -14.5 6t-5.5 13q0 12 12 22l48 50q13 11 23 11q8 0 15.5 -5.5t7.5 -18.5v-271q0 -27 -22 -27t-22 27v223z" />
    <glyph glyph-name="onehalf" unicode="&#xbd;" horiz-adv-x="637" 
d="M524 519q0 -12 -12 -24l-409 -410q-13 -12 -25 -12q-20 0 -20 20q0 12 12 25l410 409q12 12 24 12q20 0 20 -20zM577 15q0 -6 -8.5 -13.5t-18.5 -7.5h-208v27q0 36 20 64.5t48 45.5t56 31t48 28.5t20 29.5q0 32 -16 39.5t-66 7.5h-26q-38 0 -38 -26q0 -10 -7 -16.5
t-16 -6.5q-8 0 -15.5 6.5t-7.5 16.5q0 30 24 49.5t56 19.5h30q31 0 50 -2.5t38 -11t28 -27.5t9 -49q0 -28 -28.5 -53.5t-62.5 -41t-64 -39t-33 -49.5h161q11 -1 19 -7.5t8 -14.5zM159 551q-10 -12 -24 -12q-9 0 -14.5 6t-5.5 13q0 12 12 22l48 50q13 11 23 11q8 0 15.5 -5.5
t7.5 -18.5v-271q0 -27 -22 -27t-22 27v223z" />
    <glyph glyph-name="threequarters" unicode="&#xbe;" horiz-adv-x="624" 
d="M540 519q0 -12 -12 -24l-409 -410q-13 -12 -25 -12q-20 0 -20 20q0 12 12 25l410 409q12 12 24 12q20 0 20 -20zM496 95v-77q0 -27 -22 -27t-22 27v77h-132v52l122 163h54v-172h44q26 0 26 -21q0 -22 -26 -22h-44zM452 138v118l-88 -118h88zM149 598q-23 0 -41.5 -8
t-18.5 -20q0 -18 -24 -18q-22 0 -22 20q0 24 28.5 46.5t73.5 22.5h12q59 0 84 -20.5t25 -67.5q0 -41 -59 -66q23 -10 41 -30.5t18 -47.5q0 -44 -25 -64t-84 -20h-12q-45 0 -73.5 22.5t-28.5 46.5q0 20 22 20q24 0 24 -18q0 -12 18.5 -20t41.5 -8h12q40 0 51.5 10t11.5 32
q0 21 -28.5 38t-58.5 17q-12 0 -17.5 7t-5.5 15q0 9 6.5 15t16.5 6q30 0 58.5 14t28.5 34q0 14 -3 22t-17.5 14t-42.5 6h-12z" />
    <glyph glyph-name="paragraph" unicode="&#xb6;" horiz-adv-x="498" 
d="M395 -12q-27 0 -27 32v569h-31v-569q0 -32 -25 -32q-27 0 -27 32v312h-37q-80 0 -125 39.5t-45 114.5q0 89 53.5 122t158.5 33h130v-621q0 -32 -25 -32z" />
    <glyph glyph-name="uni1EBD" unicode="&#x1ebd;" horiz-adv-x="644" 
d="M377 579q3 0 8 4l31 28q13 9 22 9q10 0 18 -6t8 -17q0 -14 -14 -27l-47 -39q-8 -8 -19 -8q-2 0 -4 0.5t-3.5 0.5t-2.5 1h-2l-98 36q-2 2 -6 2q-3 0 -8 -4l-31 -28q-13 -9 -22 -9t-17 6.5t-8 17.5q0 15 14 26l46 38q7 9 19 9q2 0 7 -1t6 -1l98 -36zM559 285v-40h-422v-68
q0 -43 8.5 -68t32.5 -37.5t51.5 -16t78.5 -3.5h134q32 0 43.5 14t11.5 48q0 33 26 33t26 -36q0 -23 -3 -40t-12.5 -34.5t-31 -27t-53.5 -9.5h-141q-115 0 -169 35.5t-54 140.5v109q0 105 54 140.5t169 35.5h29q115 0 168.5 -35.5t53.5 -140.5zM337 409h-29
q-97 0 -133.5 -20.5t-37.5 -91.5h370q-1 71 -37.5 91.5t-132.5 20.5z" />
    <glyph glyph-name="uni1EBE" unicode="&#x1ebe;" horiz-adv-x="614" 
d="M137 270v-218h378q34 0 34 -28q0 -24 -34 -24h-406q-24 0 -24 36v480q0 36 24 36h406q34 0 34 -28q0 -24 -34 -24h-378v-178h259q36 0 36 -28q0 -24 -36 -24h-259z" />
    <glyph glyph-name="uni1ECF" unicode="&#x1ecf;" horiz-adv-x="644" 
d="M353 610q0 27 -54 27v41q43 0 70 -13.5t27 -54.5q0 -25 -14.5 -41t-35.5 -19v-28h-47v61q54 0 54 27zM337 0h-29q-115 0 -169 35.5t-54 140.5v109q0 105 54 140.5t169 35.5h29q115 0 168.5 -35.5t53.5 -140.5v-109q0 -105 -53.5 -140.5t-168.5 -35.5zM308 52h29
q51 0 78.5 3.5t51 16t32 37.5t8.5 68v107q0 43 -8.5 68t-32 37.5t-51 16t-78.5 3.5h-29q-51 0 -78.5 -3.5t-51.5 -16t-32.5 -37.5t-8.5 -68v-107q0 -43 8.5 -68t32.5 -37.5t51.5 -16t78.5 -3.5z" />
    <glyph glyph-name="uni1ED0" unicode="&#x1ed0;" 
d="M317 -9q-102 0 -167 63t-65 174v96q0 111 65 174t167 63t167 -63.5t65 -173.5v-96q0 -110 -65 -173.5t-167 -63.5zM317 509q-86 0 -133 -49t-47 -137v-94q0 -88 47 -137t133 -49t133 49t47 137v94q0 88 -47 137t-133 49z" />
    <glyph glyph-name="uni1ED1" unicode="&#x1ed1;" horiz-adv-x="614" 
d="M337 0h-29q-115 0 -169 35.5t-54 140.5v109q0 105 54 140.5t169 35.5h29q115 0 168.5 -35.5t53.5 -140.5v-109q0 -105 -53.5 -140.5t-168.5 -35.5zM308 52h29q51 0 78.5 3.5t51 16t32 37.5t8.5 68v107q0 43 -8.5 68t-32 37.5t-51 16t-78.5 3.5h-29q-51 0 -78.5 -3.5
t-51.5 -16t-32.5 -37.5t-8.5 -68v-107q0 -43 8.5 -68t32.5 -37.5t51.5 -16t78.5 -3.5z" />
    <glyph glyph-name="uni1ED2" unicode="&#x1ed2;" 
d="M317 -9q-102 0 -167 63t-65 174v96q0 111 65 174t167 63t167 -63.5t65 -173.5v-96q0 -110 -65 -173.5t-167 -63.5zM317 509q-86 0 -133 -49t-47 -137v-94q0 -88 47 -137t133 -49t133 49t47 137v94q0 88 -47 137t-133 49z" />
    <glyph glyph-name="uni1ED3" unicode="&#x1ed3;" horiz-adv-x="614" 
d="M337 0h-29q-115 0 -169 35.5t-54 140.5v109q0 105 54 140.5t169 35.5h29q115 0 168.5 -35.5t53.5 -140.5v-109q0 -105 -53.5 -140.5t-168.5 -35.5zM308 52h29q51 0 78.5 3.5t51 16t32 37.5t8.5 68v107q0 43 -8.5 68t-32 37.5t-51 16t-78.5 3.5h-29q-51 0 -78.5 -3.5
t-51.5 -16t-32.5 -37.5t-8.5 -68v-107q0 -43 8.5 -68t32.5 -37.5t51.5 -16t78.5 -3.5z" />
    <glyph glyph-name="uni1ED4" unicode="&#x1ed4;" 
d="M317 -9q-102 0 -167 63t-65 174v96q0 111 65 174t167 63t167 -63.5t65 -173.5v-96q0 -110 -65 -173.5t-167 -63.5zM317 509q-86 0 -133 -49t-47 -137v-94q0 -88 47 -137t133 -49t133 49t47 137v94q0 88 -47 137t-133 49z" />
  </font>
</defs>
</svg>
