<?xml version="1.0" encoding="UTF-8" standalone="no"?>
<svg
   xmlns:dc="http://purl.org/dc/elements/1.1/"
   xmlns:cc="http://creativecommons.org/ns#"
   xmlns:rdf="http://www.w3.org/1999/02/22-rdf-syntax-ns#"
   xmlns:svg="http://www.w3.org/2000/svg"
   xmlns="http://www.w3.org/2000/svg"
   xmlns:sodipodi="http://sodipodi.sourceforge.net/DTD/sodipodi-0.dtd"
   xmlns:inkscape="http://www.inkscape.org/namespaces/inkscape"
   version="1.0"
   width="150"
   height="150"
   viewBox="0 0 120 120"
   preserveAspectRatio="xMidYMid meet"
   id="svg2"
   inkscape:version="0.48.3.1 r9886"
   sodipodi:docname="estrella2.svg">
  <defs
     id="defs22">
    <filter
       inkscape:collect="always"
       id="filter3823">
      <feGaussianBlur
         inkscape:collect="always"
         stdDeviation="1.9106603"
         id="feGaussianBlur3825" />
    </filter>
  </defs>
  <sodipodi:namedview
     pagecolor="#ffffff"
     bordercolor="#666666"
     borderopacity="1"
     objecttolerance="10"
     gridtolerance="10"
     guidetolerance="10"
     inkscape:pageopacity="0"
     inkscape:pageshadow="2"
     inkscape:window-width="1680"
     inkscape:window-height="1026"
     id="namedview20"
     showgrid="false"
     inkscape:zoom="4.5641627"
     inkscape:cx="76.170599"
     inkscape:cy="86.203346"
     inkscape:window-x="0"
     inkscape:window-y="24"
     inkscape:window-maximized="1"
     inkscape:current-layer="svg2" />
  <metadata
     id="metadata4">
Created by potrace 1.8, written by Peter Selinger 2001-2007
<rdf:RDF>
  <cc:Work
     rdf:about="">
    <dc:format>image/svg+xml</dc:format>
    <dc:type
       rdf:resource="http://purl.org/dc/dcmitype/StillImage" />
  </cc:Work>
</rdf:RDF>
</metadata>
  <path
     style="fill:#000000;stroke:none;filter:url(#filter3823)"
     inkscape:connector-curvature="0"
     id="path8"
     d="m 63.067194,5.0841329 c -1.371428,1.4285715 -3.657143,4.8571431 -5.028571,7.6000001 -2.742858,5.371429 -10.000001,18.457144 -12.000001,21.600001 -0.685714,1.085715 -1.828571,2.114286 -2.571429,2.285715 -0.685714,0.228571 -3.771428,-0.05714 -6.857143,-0.571429 -3.028571,-0.457143 -6.8,-1.028571 -8.4,-1.2 C 19.467192,33.826991 15.924335,33.141277 13.524335,32.169849 9.4100489,30.512706 5.8100487,30.741277 2.8957628,32.855563 c -2.00000007,1.428571 -2.40000009,2.057143 -2.40000009,3.657143 0,1.714286 1.37142859,3.314286 12.97142929,15.428572 7.2,7.428572 13.257143,14.000001 13.542858,14.628572 0.571428,1.2 -2.4,7.542858 -11.657144,24.800001 -2.914286,5.485715 -4.571428,9.199999 -4.571428,10.399999 0,2.51429 2.457142,5.31429 4.628571,5.31429 1.771429,0 9.942858,-3.25715 16.800001,-6.74286 6.742857,-3.371428 19.314287,-8.685714 20.57143,-8.685714 0.685714,0.05714 6.228571,5.028571 14.857143,13.428574 l 13.714287,13.42857 2.914285,0 c 2.514286,0 3.085715,-0.22857 3.885715,-1.42857 1.028571,-1.6 1.2,-6.62857 0.4,-10.97143 -0.285714,-1.48571 -1.085714,-6.342858 -1.771429,-10.742858 -0.685714,-4.400001 -1.428571,-9.085715 -1.771428,-10.400001 -0.285715,-1.314286 -0.514286,-3.828571 -0.514286,-5.6 l 0,-3.2 10.742858,-5.200001 c 5.885715,-2.857143 12.514285,-5.885714 14.685715,-6.857143 2.22857,-0.914285 5.48571,-2.628571 7.25714,-3.771428 3.25715,-2.114286 3.25715,-2.114286 3.31429,-4.971429 0,-2.228572 -0.22857,-2.971429 -1.08572,-3.428572 -0.57142,-0.342857 -1.82857,-1.028571 -2.74285,-1.542857 -0.91429,-0.514286 -4.62857,-1.371429 -8.22857,-1.942857 -8.22858,-1.2 -10.228577,-1.542858 -17.942863,-3.028572 -12.114286,-2.4 -11.828572,-2.171429 -13.142858,-10.114286 -0.514285,-2.8 -1.142857,-6.4 -1.428571,-7.942858 -0.285714,-1.6 -0.8,-4.914286 -1.142857,-7.428572 -0.4,-2.514285 -0.914286,-5.657143 -1.2,-6.971428 -0.285715,-1.314286 -0.514286,-3.028572 -0.514286,-3.8857149 0,-2.0000001 -4.228572,-6.5714289 -6.114286,-6.5714289 -0.857143,0 -2.285715,0.9142858 -3.885715,2.5714287 z m 5.428572,1.6571429 c 0.457143,0.8571429 0.628572,2.4000002 0.457143,4.0571432 -0.228571,1.942857 -0.114286,2.742857 0.457143,2.971429 0.571428,0.171428 0.8,1.257143 0.8,3.314286 0,1.714285 0.285714,3.257143 0.571429,3.428571 0.342857,0.171429 0.571428,1.885714 0.571428,3.771429 0,2.114286 0.228572,3.371429 0.628572,3.371429 0.457142,0 0.571428,1.142857 0.4,3.657143 -0.285715,2.971428 -0.171429,3.771428 0.571428,4.057143 0.685715,0.228571 0.8,0.971428 0.514286,3.371428 -0.228572,2.457143 -0.114286,3.200001 0.571429,3.428572 0.628571,0.285714 0.8,0.8 0.514285,2.171429 -0.571428,2.857143 0.857143,3.942857 4.514286,3.542857 2.4,-0.285714 3.028572,-0.171429 3.314286,0.514286 0.285714,0.742857 0.914286,0.857143 3.314286,0.571428 2.285714,-0.285714 3.028572,-0.171428 3.428572,0.514286 0.342857,0.628572 1.2,0.8 3.542857,0.571429 1.942857,-0.171429 3.257143,0 3.485714,0.4 0.228572,0.342857 1.771429,0.628571 3.485715,0.628571 1.714285,0 3.257145,0.285714 3.428575,0.571429 0.17142,0.285714 1.42857,0.571428 2.8,0.571428 1.31428,0 2.68571,0.285715 3.08571,0.685715 0.4,0.4 1.88572,0.628571 3.48572,0.514285 1.54285,-0.05714 2.97142,0.114286 3.2,0.457143 0.17142,0.342858 0.85714,0.628572 1.48571,0.628572 0.57143,0 1.08571,0.4 1.08571,0.857143 0,0.457143 -0.4,0.857143 -0.85714,0.857143 -0.45714,0 -1.71428,0.514285 -2.85714,1.142857 -1.14286,0.628571 -2.4,1.142857 -2.85714,1.142857 -0.45715,0 -0.85715,0.228571 -0.85715,0.571429 0,0.285714 -0.45714,0.571428 -1.02857,0.571428 -0.57143,0 -6.11428,2.571429 -12.4,5.714286 -6.285714,3.142858 -11.714286,5.714286 -12.114286,5.714286 -0.4,0 -1.6,0.514286 -2.742857,1.142857 -1.085715,0.628572 -2.342857,1.085715 -2.742857,0.971429 -0.914286,-0.171429 -0.914286,3.542857 0,4.514286 0.457142,0.4 0.742857,2.114286 0.742857,4.171429 0,1.885714 0.285714,3.6 0.571428,3.771428 0.342857,0.171429 0.571429,1.885715 0.571429,3.771429 0,1.885715 0.228571,3.371429 0.571429,3.371429 0.342857,0 0.571428,1.542857 0.571428,3.428572 0,2.114285 0.228572,3.428571 0.628572,3.428571 0.4,0 0.571428,1.314284 0.4,3.828574 -0.114286,2.68571 0.05714,3.88571 0.571428,4 0.4,0.17143 0.685715,1.37143 0.685715,3.31428 0,1.71429 0.285714,3.25715 0.571428,3.42858 0.8,0.51428 0.685714,2.57142 -0.114286,2.51428 -0.4,-0.0571 -7.542857,-7.08571 -15.885715,-15.65714 C 54.610051,85.655565 52.438622,83.884137 51.524337,86.284137 c -0.171429,0.457143 -0.628572,0.742857 -1.028572,0.571429 -0.457143,-0.171429 -0.914286,0.114285 -1.085714,0.628571 -0.228572,0.457143 -0.742857,0.742857 -1.142857,0.571429 -0.457143,-0.171429 -0.971429,0.05714 -1.142858,0.571428 -0.228571,0.514286 -0.742857,0.742857 -1.2,0.514286 -0.514285,-0.171429 -1.028571,0.05714 -1.2,0.514286 -0.228571,0.457143 -0.857143,0.857143 -1.428571,0.857143 -0.571429,0 -1.085714,0.285714 -1.085714,0.628571 0,0.4 -0.571429,0.514286 -1.428572,0.285714 -0.8,-0.228571 -1.428571,-0.114285 -1.428571,0.171429 0,0.514286 -14.685716,8.057143 -15.77143,8.057143 -0.857143,0 -7.885715,3.600004 -8.114286,4.114284 -0.342857,0.74286 -1.828571,0.51429 -1.828571,-0.28571 0,-0.97143 1.6,-4.285717 2.285714,-4.685717 0.285714,-0.171428 2.057143,-3.485714 4,-7.428572 1.942857,-3.942857 3.714286,-7.257143 4,-7.428571 0.228572,-0.171429 1.714286,-2.8 3.2,-5.885715 1.542858,-3.028571 3.085715,-5.885714 3.485715,-6.285714 0.342857,-0.342858 0.8,-1.200001 1.028571,-1.771429 0.171429,-0.628572 0.685715,-1.257143 1.142858,-1.428572 2.342857,-0.857143 0.514285,-3.085714 -14.285715,-17.485715 -8.228572,-8 -15.0285726,-14.914286 -15.0857154,-15.314286 -0.057143,-0.857143 7.7142864,-0.971429 8.2285714,-0.114286 0.171429,0.285714 1.085715,0.571429 2.057143,0.571429 0.914286,0 1.657143,0.228571 1.657143,0.571428 0,0.285715 1.371429,0.571429 3.085715,0.571429 1.714286,0 3.314286,0.228571 3.485714,0.571428 0.171429,0.285715 1.714286,0.571429 3.428572,0.571429 1.714286,0 3.257143,0.228571 3.428571,0.571429 0.171429,0.285714 1.714286,0.571428 3.428572,0.571428 2.114286,0 3.142857,0.228572 3.314286,0.857143 0.285714,0.628572 1.028571,0.742857 3.314286,0.457143 2.4,-0.285714 3.028571,-0.171429 3.485714,0.571429 0.685715,1.314285 4,1.257143 5.2,-0.05714 0.571429,-0.571429 0.800001,-1.257143 0.571429,-1.485715 -0.285714,-0.228571 0,-0.8 0.628572,-1.2 0.571428,-0.457143 0.857142,-1.028571 0.628571,-1.371428 -0.171429,-0.342857 -0.05714,-0.628572 0.228571,-0.628572 0.342858,0 0.628572,-0.4 0.628572,-0.914286 0,-0.514285 0.571429,-1.485714 1.314286,-2.171428 0.742857,-0.685715 1.257143,-1.542857 1.085714,-1.942857 -0.114286,-0.4 0.171429,-0.857143 0.685714,-1.028572 0.514286,-0.171429 0.8,-0.514286 0.628572,-0.8 -0.285714,-0.457143 3.142857,-7.542858 4.4,-9.028572 0.457143,-0.514286 2.057143,-3.485714 3.542857,-6.514286 1.485715,-3.028571 3.085715,-5.8285716 3.542858,-6.1714288 0.457143,-0.4 0.8,-1.2000001 0.8,-1.7714287 0,-1.5428572 1.371428,-1.3142857 2.285714,0.2857143 z"
     transform="matrix(0.93491594,0,0,0.9634467,3.4279563,1.7879208)" />
  <path
     style="fill:none;stroke:none"
     inkscape:connector-curvature="0"
     id="path10"
     d="m 64.667194,16.055562 c -0.628571,0.914286 -1.542857,2.571429 -2.057142,3.714286 -0.571429,1.142857 -1.257143,2.285714 -1.542858,2.457143 -0.285714,0.171428 -0.971428,1.314286 -1.542857,2.457143 -0.514286,1.142857 -1.371429,2.4 -1.828571,2.742857 -0.457143,0.342857 -0.628572,1.028572 -0.457143,1.6 0.571428,1.485715 5.314286,1.2 8.857143,-0.571428 2.8,-1.371429 2.914286,-1.542858 2.571429,-3.257143 -0.228572,-1.028572 -0.857143,-2.685715 -1.428572,-3.771429 -0.8,-1.428572 -1.028571,-2.514286 -0.742857,-4.057143 0.457143,-2.742857 -0.457143,-3.371429 -1.828572,-1.314286 z" />
  <path
     style="fill:none;stroke:none"
     inkscape:connector-curvature="0"
     id="path12"
     d="m 11.23862,38.569849 c -0.857143,0.457143 -0.4,1.085714 3.314286,4.685714 2.4,2.285715 4.857143,4.285715 5.428572,4.514286 0.628571,0.228572 1.085714,0.685715 1.085714,1.028572 0,0.285714 0.857143,0.571428 1.885715,0.571428 2.057143,0 4.228571,-1.714285 3.542857,-2.8 -0.171429,-0.342857 0.05714,-0.8 0.571429,-0.971428 0.514285,-0.228572 0.8,-0.685715 0.628571,-1.085715 -0.171429,-0.457143 0.114286,-0.914285 0.571429,-1.085714 0.457143,-0.171429 0.8,-0.685714 0.8,-1.2 0,-0.628572 -0.628572,-0.857143 -2.228572,-0.857143 -1.257143,0 -2.457143,-0.285714 -2.628571,-0.571429 -0.171429,-0.342857 -1.2,-0.571428 -2.285715,-0.571428 -1.085714,0 -2.114286,-0.285715 -2.285714,-0.571429 -0.171429,-0.342857 -1.371429,-0.571428 -2.628572,-0.571428 -1.2,0 -2.228571,-0.285715 -2.228571,-0.571429 0,-0.742857 -2.285715,-0.685714 -3.542858,0.05714 z" />
  <path
     style="fill:none;stroke:none"
     inkscape:connector-curvature="0"
     id="path14"
     d="m 92.267196,53.312707 c -0.857143,0.914286 -0.857143,1.085714 0.171428,2 0.628572,0.571428 1.371429,0.857143 1.714286,0.685714 0.285715,-0.171428 0.914286,0.4 1.371429,1.314286 0.8,1.542857 0.742857,1.771429 -0.171429,2.628572 -0.628571,0.571428 -1.314285,0.8 -1.657143,0.628571 -0.285714,-0.171429 -1.028571,0.285714 -1.657143,1.085714 -0.628571,0.742857 -1.257142,1.2 -1.485714,1.028572 -0.171429,-0.228572 -0.914286,0.114286 -1.657143,0.742857 -0.685714,0.628571 -2.514286,1.771429 -4.114286,2.514286 -4,1.885714 -5.028571,2.857143 -4.228571,3.828571 0.742857,0.8 2,1.028572 2.342857,0.285715 0.114286,-0.228572 2.685714,-1.657143 5.714286,-3.2 3.085714,-1.485715 5.714286,-2.971429 5.885714,-3.200001 0.171429,-0.285714 2.457143,-1.542857 5.085715,-2.857143 2.628568,-1.257143 5.085718,-2.685714 5.485718,-3.142857 0.4,-0.457143 0.97143,-0.685714 1.25714,-0.514286 0.62857,0.4 2.8,-1.428571 2.45714,-2.114285 -0.17143,-0.228572 -1.14285,-0.285715 -2.22857,-0.114286 -1.08571,0.171428 -2.05714,0.05714 -2.28571,-0.342857 -0.22857,-0.342857 -1.77143,-0.628572 -3.42858,-0.628572 -1.599995,0 -3.199995,-0.228571 -3.48571,-0.514286 -1.257143,-1.085714 -4.114286,-1.142857 -5.085714,-0.114285 z" />
  <path
     style="fill:none;stroke:none"
     inkscape:connector-curvature="0"
     id="path16"
     d="m 70.267195,72.512708 c -0.742857,0.4 -1.771429,1.6 -2.228572,2.571428 -0.857143,1.714286 -0.8,1.885715 0.171429,2.628572 0.914286,0.685714 0.971428,1.314286 0.685714,5.314286 -0.228571,3.542857 -0.114286,4.742857 0.514286,5.257143 0.457143,0.4 0.685714,1.142857 0.514286,1.657143 -0.171429,0.628571 0.05714,1.142857 0.628571,1.371429 0.514286,0.171428 0.8,0.742857 0.628572,1.142857 -0.171429,0.457143 0.05714,0.971428 0.571428,1.142857 0.514286,0.228571 0.742857,0.742857 0.514286,1.2 -0.171429,0.514286 0.05714,1.028572 0.571428,1.257143 0.457143,0.171429 0.742858,0.685714 0.571429,1.142857 -0.171429,0.4 0.05714,0.914286 0.571429,1.142857 0.457143,0.171429 0.742857,0.628572 0.571428,1.028572 -0.171428,0.457143 0.114286,0.914288 0.628572,1.085718 0.457143,0.22857 0.742857,0.74285 0.571428,1.14285 -0.171428,0.45715 -0.05714,0.91429 0.342857,1.08572 0.400001,0.11428 0.685715,0.68571 0.685715,1.31428 0,0.68572 0.4,1.08572 1.142857,1.08572 1.028571,0 1.142857,-0.4 1.142857,-4.51429 0,-3.085712 -0.228571,-4.571427 -0.685714,-4.742855 -0.514286,-0.228572 -0.742857,-1.657143 -0.742857,-4.457144 0,-2.342857 -0.228572,-4.4 -0.571429,-4.571428 -0.285714,-0.171429 -0.571428,-2 -0.571428,-4.000001 0,-2.057142 -0.285715,-3.828571 -0.628572,-4.057143 -0.4,-0.228571 -0.514286,-1.371428 -0.342857,-2.857143 0.228571,-2.342857 0.114286,-2.571428 -1.485714,-3.371428 -2.000001,-0.971429 -1.942858,-0.971429 -3.771429,0 z" />
  <path
     style="fill:none;stroke:none"
     inkscape:connector-curvature="0"
     id="path18"
     d="m 32.895764,76.112708 c -0.571428,0.571428 -0.8,1.257143 -0.571428,1.428571 0.171428,0.228572 -0.171429,0.971429 -0.8,1.714286 -0.628572,0.685715 -1.542858,2.171429 -2.057143,3.314286 -0.514286,1.142857 -1.314286,2.4 -1.828572,2.8 -0.457143,0.4 -0.857143,1.028572 -0.857143,1.428572 0,0.342857 -0.514285,1.142857 -1.142857,1.714286 -0.628571,0.571428 -1.142857,1.314285 -1.142857,1.714285 0,0.342857 -0.914286,1.714286 -2.057143,3.028572 -2.4,2.857143 -2.342857,4.571429 0.114286,3.257143 0.857143,-0.4 1.714285,-1.028572 1.885714,-1.257143 0.457143,-0.685714 11.600001,-6.171429 12.514286,-6.171429 0.457143,0 1.142858,-0.857143 1.542858,-1.885714 0.457142,-0.971429 1.085714,-1.828572 1.485714,-1.828572 0.342857,0 0.514286,-0.342857 0.342857,-0.8 -0.171428,-0.457143 0.05714,-0.971428 0.514286,-1.142857 0.457143,-0.171429 0.8,-0.571429 0.8,-0.914286 0,-0.8 -6.514286,-7.428572 -7.314286,-7.428572 -0.285714,0 -0.914286,0.457143 -1.428572,1.028572 z" />
  <path
     style="fill:none"
     d="M 87.577127,126.37598 C 74.266288,113.10955 67.82366,107.10708 66.556992,106.79193 c -1.171668,-0.29151 -1.90934,-0.20586 -2.05759,0.23889 -0.193505,0.58052 -3.833467,2.54457 -7.58044,4.09026 -0.511255,0.21091 -1.766155,0.91774 -2.788665,1.57074 -1.022511,0.65302 -2.469162,1.20768 -3.21478,1.23259 -0.745618,0.0249 -4.366819,1.7198 -8.047113,3.76642 -3.680294,2.04662 -8.787007,4.58222 -11.34825,5.63467 -2.561243,1.05245 -6.671599,2.98789 -9.134124,4.30097 -2.462524,1.31309 -4.61484,2.16492 -4.782923,1.89295 -0.168084,-0.27196 0.312943,-1.63221 1.068949,-3.02276 0.756005,-1.39055 2.596118,-4.84769 4.089141,-7.68254 1.493022,-2.83485 4.723481,-8.77953 7.178798,-13.21041 2.455317,-4.43088 5.524337,-10.008213 6.820045,-12.394071 1.295708,-2.385858 3.04139,-5.260061 3.879293,-6.387121 1.112237,-1.496063 1.414754,-2.482315 1.120737,-3.653772 -0.243,-0.968187 -7.656646,-8.916682 -18.692567,-20.041119 L 4.7776588,44.691085 7.7643592,44.297905 c 2.1873963,-0.287955 4.1476208,-0.03706 7.3246238,0.937503 2.385858,0.731875 6.011123,1.579165 8.056144,1.882868 14.381352,2.135749 19.789158,3.089289 20.906581,3.686385 0.59184,0.316249 2.543905,0.583869 4.337924,0.594708 1.879997,0.01136 3.771459,0.405157 4.464776,0.929555 2.31888,1.753913 7.782774,0.483952 7.782774,-1.808932 0,-0.921399 2.552837,-6.102126 3.670396,-7.448703 0.421712,-0.508131 2.494947,-4.354233 4.607193,-8.546893 4.364379,-8.662997 11.157239,-21.070651 12.877189,-23.52112 0.634998,-0.904707 1.154544,-2.0898898 1.154544,-2.6337392 0,-0.5438493 0.391021,-0.988817 0.86893,-0.988817 1.17466,0 2.229587,3.2517922 2.229587,6.8726382 0,1.633209 0.239417,3.117438 0.532034,3.298287 0.292624,0.180849 0.719773,1.940223 0.949219,3.909719 0.720151,6.181444 1.906722,12.844933 2.431827,13.656522 0.27759,0.429038 0.421268,2.638145 0.319278,4.909128 -0.128657,2.864911 0.04883,4.20715 0.579769,4.384126 0.500151,0.166716 0.765204,1.619774 0.765204,4.194924 0,2.166922 0.278866,4.112206 0.619703,4.322855 0.340837,0.210649 0.619704,1.611628 0.619704,3.113286 0,3.325987 0.98003,4.013303 5.722502,4.013303 1.828839,0 3.669229,0.344062 4.089749,0.764583 0.47784,0.477836 2.1124,0.697785 4.35841,0.586474 2.65782,-0.131721 3.80193,0.07265 4.39286,0.784676 0.52973,0.638279 1.87003,0.966431 3.9766,0.973603 2.83588,0.0097 7.90478,0.75507 17.43075,2.563299 1.70418,0.32349 4.77171,0.811571 6.81673,1.084623 4.17267,0.557136 7.7463,1.756104 7.7463,2.598918 0,0.307491 -0.31372,0.559078 -0.69714,0.559078 -0.85534,0 -8.16861,3.202423 -8.59841,3.765176 -0.17042,0.223136 -1.00702,0.615706 -1.85911,0.872381 -0.8521,0.256681 -8.10263,3.591416 -16.11229,7.410531 -13.50437,6.439065 -17.8238,8.380162 -20.60514,9.259694 -1.361308,0.430477 -1.428912,3.124353 -0.154926,6.173436 0.511256,1.223604 0.929556,3.34516 0.929556,4.71456 0,1.3694 0.25907,3.67901 0.57571,5.13246 1.24325,5.70679 2.52281,13.43479 2.52281,15.23672 0,1.04269 0.27886,2.06814 0.6197,2.27879 0.34084,0.21065 0.6197,2.22909 0.6197,4.48543 0,2.25633 0.25713,4.95882 0.5714,6.00553 0.76198,2.53788 2.03773,9.72566 1.77315,9.99023 -0.11544,0.11545 -8.847039,-8.39843 -19.403543,-18.91972 l 0,0 z m 11.481666,-0.43868 c 0,-2.53695 -0.310546,-5.19289 -0.690102,-5.9021 -0.379556,-0.70921 -0.954926,-3.82813 -1.278591,-6.93093 -0.323671,-3.10279 -0.847351,-7.59352 -1.163728,-9.97938 -0.316384,-2.38585 -0.751744,-5.957707 -0.967475,-7.937449 -0.31212,-2.8643 -0.694861,-3.797821 -1.873841,-4.570312 -2.456182,-1.609351 -4.571768,-1.21812 -6.848788,1.266537 -2.220577,2.423071 -2.584151,4.289079 -1.120802,5.752428 0.681773,0.681773 0.93204,2.36314 0.938888,6.307696 0.0084,4.82431 0.878399,9.26111 2.044773,10.42748 0.233591,0.23359 0.424708,0.93596 0.424708,1.56083 0,0.62486 0.278867,1.13612 0.619703,1.13612 0.340837,0 0.619704,0.54127 0.619704,1.20283 0,0.66156 0.261006,1.36415 0.580017,1.56131 0.319011,0.19716 1.320805,1.95653 2.22621,3.90972 3.528703,7.6123 4.300432,8.62448 5.69391,7.46799 0.517049,-0.42911 0.795414,-2.27439 0.795414,-5.27277 z m -68.443625,-6.492 c 1.685704,-1.07847 6.199528,-3.45758 10.030719,-5.28692 5.386402,-2.57193 7.181503,-3.7432 7.917132,-5.16574 0.523232,-1.01182 1.223036,-1.83967 1.55512,-1.83967 0.332084,0 0.603789,-0.46606 0.603789,-1.03569 0,-0.56962 0.435575,-1.51699 0.967944,-2.10525 0.892403,-0.9861 0.666848,-1.39144 -2.890108,-5.193839 -4.831156,-5.164522 -5.843372,-5.753791 -7.424938,-4.322494 -0.65332,0.591247 -1.187855,1.433969 -1.187855,1.872713 0,0.928303 -3.438799,6.55211 -9.625904,15.74218 -4.603346,6.83762 -5.398114,8.31815 -4.791144,8.92511 0.713124,0.71313 1.804768,0.35481 4.845245,-1.5904 l 0,0 z M 107.51288,85.865045 c 2.67825,-1.483248 9.05253,-4.999426 14.16509,-7.813729 5.11255,-2.814302 9.56047,-5.365429 9.88427,-5.669176 0.32379,-0.303748 0.999,-0.552268 1.50046,-0.552268 1.13541,0 3.1783,-1.796408 3.1783,-2.794831 0,-0.463394 -1.57636,-0.902092 -4.183,-1.164124 -2.30065,-0.231273 -5.71677,-0.706405 -7.59137,-1.05585 -6.92414,-1.29073 -8.39272,-1.34052 -9.24512,-0.31344 -1.06806,1.286933 -0.51543,2.554583 1.55686,3.5712 3.27951,1.608862 3.57435,4.813125 0.49525,5.382205 -0.64514,0.119237 -1.73072,0.693467 -2.41239,1.276068 -0.68167,0.582602 -1.93657,1.392282 -2.78867,1.799291 -4.02419,1.922183 -10.79174,6.110554 -11.36864,7.035938 -0.63875,1.024593 0.32347,2.995535 1.46244,2.995535 0.26234,0 2.66827,-1.213565 5.34652,-2.696819 l 0,0 z M 31.992939,60.949923 c 0.757512,-0.530582 1.377294,-1.372723 1.377294,-1.871424 0,-0.498702 0.717045,-2.042603 1.593433,-3.430892 1.88588,-2.987425 1.608313,-4.267946 -0.925121,-4.267946 -1.017171,0 -2.489972,-0.253941 -3.272892,-0.564313 -0.782921,-0.310372 -3.654424,-1.046815 -6.381119,-1.636542 -2.726695,-0.589726 -5.303153,-1.343427 -5.725463,-1.674891 -1.221389,-0.958647 -5.119346,0.02319 -5.119346,1.289486 0,1.153091 5.164781,6.482193 10.225106,10.550424 3.396279,2.730428 5.919677,3.222986 8.228108,1.606098 l 0,0 z M 82.666975,35.802214 c 3.677289,-1.755108 4.051862,-3.1174 2.169928,-7.891903 -0.698882,-1.773078 -1.270695,-4.607789 -1.270695,-6.299355 0,-2.163196 -0.247262,-3.075575 -0.833507,-3.075575 -1.135024,0 -2.043131,1.181674 -6.327122,8.233141 -2.0263,3.335299 -4.088996,6.724806 -4.58376,7.532236 -0.778515,1.270483 -0.780932,1.611028 -0.01791,2.530389 1.208366,1.45599 6.758039,0.930334 10.863084,-1.028933 l -1.8e-5,0 z"
     id="path2999"
     inkscape:connector-curvature="0"
     transform="scale(0.8,0.8)" />
  <path
     style="fill:none"
     d="m 26.329721,120.01181 c 0.257991,-0.42605 1.738498,-2.68398 3.290016,-5.01763 5.343811,-8.03767 11.139694,-17.44812 11.16329,-18.1252 0.01301,-0.37322 0.531894,-1.13854 1.153085,-1.70071 1.066485,-0.965156 1.360087,-0.79261 5.267479,3.095628 3.832956,3.814172 5.033806,5.790552 3.518337,5.790552 -0.340837,0 -0.619703,0.44108 -0.619703,0.98019 0,1.08538 -4.176308,6.45625 -5.020284,6.45625 -0.89273,0 -10.552278,4.75119 -14.420527,7.09295 -3.79957,2.30018 -5.124307,2.73689 -4.331693,1.42797 z"
     id="path3001"
     inkscape:connector-curvature="0"
     transform="scale(0.8,0.8)" />
  <path
     style="fill:none"
     d="M 25.004237,59.360916 C 22.072815,57.174162 14.159428,49.449212 14.159428,48.774348 c 0,-0.764011 3.048692,-1.300212 3.881194,-0.682621 0.42162,0.312779 2.997514,1.069077 5.724209,1.680662 2.726695,0.611585 5.598198,1.362848 6.381118,1.669474 0.782921,0.306625 2.230512,0.557501 3.21687,0.557501 1.829232,0 3.298746,1.278419 1.976244,1.719253 -0.401183,0.133728 -0.729423,0.604056 -0.729423,1.045175 0,0.441118 -0.4183,1.149192 -0.929555,1.573496 -0.511255,0.424304 -0.929555,1.279237 -0.929555,1.89985 0,1.362839 -2.276121,3.073938 -4.011034,3.015338 -0.691045,-0.02334 -2.371911,-0.874543 -3.735259,-1.89156 z"
     id="path3003"
     inkscape:connector-curvature="0"
     transform="scale(0.8,0.8)" />
  <path
     style="fill:none"
     d="m 72.472886,36.59693 c -0.700985,-0.475411 -0.20917,-1.644918 2.553363,-6.071746 1.881868,-3.015604 4.181413,-6.807534 5.110099,-8.426509 0.928686,-1.618975 1.940889,-2.943591 2.249339,-2.943591 0.308449,0 0.560817,1.371213 0.560817,3.04714 0,1.692523 0.563365,4.361418 1.26726,6.003538 0.696994,1.626019 1.18501,3.531488 1.084481,4.234375 -0.366288,2.561062 -10.388649,5.809382 -12.825359,4.156793 l 0,0 z"
     id="path3005"
     inkscape:connector-curvature="0"
     transform="scale(0.8,0.8)" />
  <path
     style="fill:none"
     d="m 101.69253,87.509693 c -1.58202,-0.593326 -0.68278,-1.898745 2.47882,-3.598502 1.78939,-0.962023 4.41915,-2.540109 5.84391,-3.506857 1.42476,-0.966749 2.99409,-1.757724 3.48741,-1.757724 0.49332,0 1.25748,-0.434412 1.69812,-0.965359 0.44065,-0.530947 1.7297,-1.353317 2.86455,-1.827488 3.21871,-1.344863 2.61346,-5.137932 -1.02207,-6.405285 -3.7294,-1.300075 -1.09322,-3.914691 2.94196,-2.917895 2.83649,0.700688 7.68326,1.505423 11.7767,1.955346 3.7354,0.41057 3.84641,0.471998 2.84755,1.575732 -0.57167,0.63168 -1.44114,1.148508 -1.93216,1.148508 -0.49102,0 -1.63299,0.509237 -2.53769,1.131638 -0.90471,0.622401 -3.59699,2.194446 -5.98285,3.493433 -9.1566,4.985338 -16.82933,9.201115 -19.21081,10.555367 -1.36334,0.775283 -2.82739,1.278872 -3.25344,1.119086 z"
     id="path3007"
     inkscape:connector-curvature="0"
     transform="scale(0.8,0.8)" />
  <path
     style="fill:none"
     d="m 94.463118,125.89899 c -1.297599,-2.64148 -2.599331,-5.221 -2.892737,-5.73225 -0.667843,-1.1637 -2.351564,-4.77067 -3.182032,-6.81674 -0.345852,-0.85209 -0.875152,-2.03349 -1.176222,-2.62533 -0.301071,-0.59184 -0.547402,-3.63741 -0.547402,-6.76794 0,-4.48792 -0.222888,-5.93816 -1.053736,-6.856237 -0.99235,-1.096534 -0.99016,-1.282418 0.03759,-3.190829 0.600228,-1.114555 1.860432,-2.480788 2.800454,-3.036073 1.597311,-0.943555 1.832974,-0.934295 3.602034,0.141535 1.662692,1.011143 1.940209,1.591425 2.28187,4.771345 0.213932,1.991111 0.640537,5.432839 0.948012,7.648279 0.307475,2.21543 0.840728,6.58061 1.185006,9.70038 0.344277,3.11977 0.929075,6.23868 1.299548,6.93092 0.999846,1.86823 0.888757,10.63564 -0.134761,10.63564 -0.444592,0 -1.870021,-2.16121 -3.167621,-4.8027 z"
     id="path3009"
     inkscape:connector-curvature="0"
     transform="scale(0.8,0.8)" />
  <path
     style="fill:none"
     d="m 94.463118,125.89899 c -1.297599,-2.64148 -2.599331,-5.221 -2.892737,-5.73225 -0.667843,-1.1637 -2.351564,-4.77067 -3.182032,-6.81674 -0.345852,-0.85209 -0.875152,-2.03349 -1.176222,-2.62533 -0.301071,-0.59184 -0.547402,-3.63741 -0.547402,-6.76794 0,-4.48792 -0.222888,-5.93816 -1.053736,-6.856237 -0.99235,-1.096534 -0.99016,-1.282418 0.03759,-3.190829 0.600228,-1.114555 1.860432,-2.480788 2.800454,-3.036073 1.597311,-0.943555 1.832974,-0.934295 3.602034,0.141535 1.662692,1.011143 1.940209,1.591425 2.28187,4.771345 0.213932,1.991111 0.640537,5.432839 0.948012,7.648279 0.307475,2.21543 0.840728,6.58061 1.185006,9.70038 0.344277,3.11977 0.929075,6.23868 1.299548,6.93092 0.999846,1.86823 0.888757,10.63564 -0.134761,10.63564 -0.444592,0 -1.870021,-2.16121 -3.167621,-4.8027 z"
     id="path3011"
     inkscape:connector-curvature="0"
     transform="scale(0.8,0.8)" />
  <path
     style="fill:none"
     d="m 26.329721,120.01181 c 0.257991,-0.42605 1.738498,-2.68398 3.290016,-5.01763 5.343811,-8.03767 11.139694,-17.44812 11.16329,-18.1252 0.01301,-0.37322 0.531894,-1.13854 1.153085,-1.70071 1.066485,-0.965156 1.360087,-0.79261 5.267479,3.095628 3.832956,3.814172 5.033806,5.790552 3.518337,5.790552 -0.340837,0 -0.619703,0.44108 -0.619703,0.98019 0,1.08538 -4.176308,6.45625 -5.020284,6.45625 -0.89273,0 -10.552278,4.75119 -14.420527,7.09295 -3.79957,2.30018 -5.124307,2.73689 -4.331693,1.42797 z"
     id="path3013"
     inkscape:connector-curvature="0"
     transform="scale(0.8,0.8)" />
  <path
     style="fill:none"
     d="M 87.577127,126.37598 C 74.266288,113.10955 67.82366,107.10708 66.556992,106.79193 c -1.171668,-0.29151 -1.90934,-0.20586 -2.05759,0.23889 -0.193505,0.58052 -3.833467,2.54457 -7.58044,4.09026 -0.511255,0.21091 -1.766155,0.91774 -2.788665,1.57074 -1.022511,0.65302 -2.469162,1.20768 -3.21478,1.23259 -0.745618,0.0249 -4.366819,1.7198 -8.047113,3.76642 -3.680294,2.04662 -8.787007,4.58222 -11.34825,5.63467 -2.561243,1.05245 -6.671599,2.98789 -9.134124,4.30097 -2.462524,1.31309 -4.61484,2.16492 -4.782923,1.89295 -0.168084,-0.27196 0.312943,-1.63221 1.068949,-3.02276 0.756005,-1.39055 2.596118,-4.84769 4.089141,-7.68254 1.493022,-2.83485 4.723481,-8.77953 7.178798,-13.21041 2.455317,-4.43088 5.524337,-10.008213 6.820045,-12.394071 1.295708,-2.385858 3.04139,-5.260061 3.879293,-6.387121 1.112237,-1.496063 1.414754,-2.482315 1.120737,-3.653772 -0.243,-0.968187 -7.656646,-8.916682 -18.692567,-20.041119 L 4.7776588,44.691085 7.7643592,44.297905 c 2.1873963,-0.287955 4.1476208,-0.03706 7.3246238,0.937503 2.385858,0.731875 6.011123,1.579165 8.056144,1.882868 14.381352,2.135749 19.789158,3.089289 20.906581,3.686385 0.59184,0.316249 2.543905,0.583869 4.337924,0.594708 1.879997,0.01136 3.771459,0.405157 4.464776,0.929555 2.31888,1.753913 7.782774,0.483952 7.782774,-1.808932 0,-0.921399 2.552837,-6.102126 3.670396,-7.448703 0.421712,-0.508131 2.494947,-4.354233 4.607193,-8.546893 4.364379,-8.662997 11.157239,-21.070651 12.877189,-23.52112 0.634998,-0.904707 1.154544,-2.0898898 1.154544,-2.6337392 0,-0.5438493 0.391021,-0.988817 0.86893,-0.988817 1.17466,0 2.229587,3.2517922 2.229587,6.8726382 0,1.633209 0.239417,3.117438 0.532034,3.298287 0.292624,0.180849 0.719773,1.940223 0.949219,3.909719 0.720151,6.181444 1.906722,12.844933 2.431827,13.656522 0.27759,0.429038 0.421268,2.638145 0.319278,4.909128 -0.128657,2.864911 0.04883,4.20715 0.579769,4.384126 0.500151,0.166716 0.765204,1.619774 0.765204,4.194924 0,2.166922 0.278866,4.112206 0.619703,4.322855 0.340837,0.210649 0.619704,1.611628 0.619704,3.113286 0,3.325987 0.98003,4.013303 5.722502,4.013303 1.828839,0 3.669229,0.344062 4.089749,0.764583 0.47784,0.477836 2.1124,0.697785 4.35841,0.586474 2.65782,-0.131721 3.80193,0.07265 4.39286,0.784676 0.52973,0.638279 1.87003,0.966431 3.9766,0.973603 2.83588,0.0097 7.90478,0.75507 17.43075,2.563299 1.70418,0.32349 4.77171,0.811571 6.81673,1.084623 4.17267,0.557136 7.7463,1.756104 7.7463,2.598918 0,0.307491 -0.31372,0.559078 -0.69714,0.559078 -0.85534,0 -8.16861,3.202423 -8.59841,3.765176 -0.17042,0.223136 -1.00702,0.615706 -1.85911,0.872381 -0.8521,0.256681 -8.10263,3.591416 -16.11229,7.410531 -13.50437,6.439065 -17.8238,8.380162 -20.60514,9.259694 -1.361308,0.430477 -1.428912,3.124353 -0.154926,6.173436 0.511256,1.223604 0.929556,3.34516 0.929556,4.71456 0,1.3694 0.25907,3.67901 0.57571,5.13246 1.24325,5.70679 2.52281,13.43479 2.52281,15.23672 0,1.04269 0.27886,2.06814 0.6197,2.27879 0.34084,0.21065 0.6197,2.22909 0.6197,4.48543 0,2.25633 0.25713,4.95882 0.5714,6.00553 0.76198,2.53788 2.03773,9.72566 1.77315,9.99023 -0.11544,0.11545 -8.847039,-8.39843 -19.403543,-18.91972 l 0,0 z m 11.481666,-0.43868 c 0,-2.53695 -0.310546,-5.19289 -0.690102,-5.9021 -0.379556,-0.70921 -0.954926,-3.82813 -1.278591,-6.93093 -0.323671,-3.10279 -0.847351,-7.59352 -1.163728,-9.97938 -0.316384,-2.38585 -0.751744,-5.957707 -0.967475,-7.937449 -0.31212,-2.8643 -0.694861,-3.797821 -1.873841,-4.570312 -2.456182,-1.609351 -4.571768,-1.21812 -6.848788,1.266537 -2.220577,2.423071 -2.584151,4.289079 -1.120802,5.752428 0.681773,0.681773 0.93204,2.36314 0.938888,6.307696 0.0084,4.82431 0.878399,9.26111 2.044773,10.42748 0.233591,0.23359 0.424708,0.93596 0.424708,1.56083 0,0.62486 0.278867,1.13612 0.619703,1.13612 0.340837,0 0.619704,0.54127 0.619704,1.20283 0,0.66156 0.261006,1.36415 0.580017,1.56131 0.319011,0.19716 1.320805,1.95653 2.22621,3.90972 3.528703,7.6123 4.300432,8.62448 5.69391,7.46799 0.517049,-0.42911 0.795414,-2.27439 0.795414,-5.27277 z m -68.443625,-6.492 c 1.685704,-1.07847 6.199528,-3.45758 10.030719,-5.28692 5.386402,-2.57193 7.181503,-3.7432 7.917132,-5.16574 0.523232,-1.01182 1.223036,-1.83967 1.55512,-1.83967 0.332084,0 0.603789,-0.46606 0.603789,-1.03569 0,-0.56962 0.435575,-1.51699 0.967944,-2.10525 0.892403,-0.9861 0.666848,-1.39144 -2.890108,-5.193839 -4.831156,-5.164522 -5.843372,-5.753791 -7.424938,-4.322494 -0.65332,0.591247 -1.187855,1.433969 -1.187855,1.872713 0,0.928303 -3.438799,6.55211 -9.625904,15.74218 -4.603346,6.83762 -5.398114,8.31815 -4.791144,8.92511 0.713124,0.71313 1.804768,0.35481 4.845245,-1.5904 l 0,0 z M 107.51288,85.865045 c 2.67825,-1.483248 9.05253,-4.999426 14.16509,-7.813729 5.11255,-2.814302 9.56047,-5.365429 9.88427,-5.669176 0.32379,-0.303748 0.999,-0.552268 1.50046,-0.552268 1.13541,0 3.1783,-1.796408 3.1783,-2.794831 0,-0.463394 -1.57636,-0.902092 -4.183,-1.164124 -2.30065,-0.231273 -5.71677,-0.706405 -7.59137,-1.05585 -6.92414,-1.29073 -8.39272,-1.34052 -9.24512,-0.31344 -1.06806,1.286933 -0.51543,2.554583 1.55686,3.5712 3.27951,1.608862 3.57435,4.813125 0.49525,5.382205 -0.64514,0.119237 -1.73072,0.693467 -2.41239,1.276068 -0.68167,0.582602 -1.93657,1.392282 -2.78867,1.799291 -4.02419,1.922183 -10.79174,6.110554 -11.36864,7.035938 -0.63875,1.024593 0.32347,2.995535 1.46244,2.995535 0.26234,0 2.66827,-1.213565 5.34652,-2.696819 l 0,0 z M 31.992939,60.949923 c 0.757512,-0.530582 1.377294,-1.372723 1.377294,-1.871424 0,-0.498702 0.717045,-2.042603 1.593433,-3.430892 1.88588,-2.987425 1.608313,-4.267946 -0.925121,-4.267946 -1.017171,0 -2.489972,-0.253941 -3.272892,-0.564313 -0.782921,-0.310372 -3.654424,-1.046815 -6.381119,-1.636542 -2.726695,-0.589726 -5.303153,-1.343427 -5.725463,-1.674891 -1.221389,-0.958647 -5.119346,0.02319 -5.119346,1.289486 0,1.153091 5.164781,6.482193 10.225106,10.550424 3.396279,2.730428 5.919677,3.222986 8.228108,1.606098 l 0,0 z M 82.666975,35.802214 c 3.677289,-1.755108 4.051862,-3.1174 2.169928,-7.891903 -0.698882,-1.773078 -1.270695,-4.607789 -1.270695,-6.299355 0,-2.163196 -0.247262,-3.075575 -0.833507,-3.075575 -1.135024,0 -2.043131,1.181674 -6.327122,8.233141 -2.0263,3.335299 -4.088996,6.724806 -4.58376,7.532236 -0.778515,1.270483 -0.780932,1.611028 -0.01791,2.530389 1.208366,1.45599 6.758039,0.930334 10.863084,-1.028933 l -1.8e-5,0 z"
     id="path3015"
     inkscape:connector-curvature="0"
     transform="scale(0.8,0.8)" />
  <path
     style="fill:none"
     d="M 25.004237,59.360916 C 22.072815,57.174162 14.159428,49.449212 14.159428,48.774348 c 0,-0.764011 3.048692,-1.300212 3.881194,-0.682621 0.42162,0.312779 2.997514,1.069077 5.724209,1.680662 2.726695,0.611585 5.598198,1.362848 6.381118,1.669474 0.782921,0.306625 2.230512,0.557501 3.21687,0.557501 1.829232,0 3.298746,1.278419 1.976244,1.719253 -0.401183,0.133728 -0.729423,0.604056 -0.729423,1.045175 0,0.441118 -0.4183,1.149192 -0.929555,1.573496 -0.511255,0.424304 -0.929555,1.279237 -0.929555,1.89985 0,1.362839 -2.276121,3.073938 -4.011034,3.015338 -0.691045,-0.02334 -2.371911,-0.874543 -3.735259,-1.89156 z"
     id="path3017"
     inkscape:connector-curvature="0"
     transform="scale(0.8,0.8)" />
  <path
     style="fill:none"
     d="m 72.472886,36.59693 c -0.700985,-0.475411 -0.20917,-1.644918 2.553363,-6.071746 1.881868,-3.015604 4.181413,-6.807534 5.110099,-8.426509 0.928686,-1.618975 1.940889,-2.943591 2.249339,-2.943591 0.308449,0 0.560817,1.371213 0.560817,3.04714 0,1.692523 0.563365,4.361418 1.26726,6.003538 0.696994,1.626019 1.18501,3.531488 1.084481,4.234375 -0.366288,2.561062 -10.388649,5.809382 -12.825359,4.156793 l 0,0 z"
     id="path3019"
     inkscape:connector-curvature="0"
     transform="scale(0.8,0.8)" />
  <path
     style="fill:none"
     d="m 101.69253,87.509693 c -1.58202,-0.593326 -0.68278,-1.898745 2.47882,-3.598502 1.78939,-0.962023 4.41915,-2.540109 5.84391,-3.506857 1.42476,-0.966749 2.99409,-1.757724 3.48741,-1.757724 0.49332,0 1.25748,-0.434412 1.69812,-0.965359 0.44065,-0.530947 1.7297,-1.353317 2.86455,-1.827488 3.21871,-1.344863 2.61346,-5.137932 -1.02207,-6.405285 -3.7294,-1.300075 -1.09322,-3.914691 2.94196,-2.917895 2.83649,0.700688 7.68326,1.505423 11.7767,1.955346 3.7354,0.41057 3.84641,0.471998 2.84755,1.575732 -0.57167,0.63168 -1.44114,1.148508 -1.93216,1.148508 -0.49102,0 -1.63299,0.509237 -2.53769,1.131638 -0.90471,0.622401 -3.59699,2.194446 -5.98285,3.493433 -9.1566,4.985338 -16.82933,9.201115 -19.21081,10.555367 -1.36334,0.775283 -2.82739,1.278872 -3.25344,1.119086 z"
     id="path3021"
     inkscape:connector-curvature="0"
     transform="scale(0.8,0.8)" />
  <path
     style="fill:none"
     d="m 94.463118,125.89899 c -1.297599,-2.64148 -2.599331,-5.221 -2.892737,-5.73225 -0.667843,-1.1637 -2.351564,-4.77067 -3.182032,-6.81674 -0.345852,-0.85209 -0.875152,-2.03349 -1.176222,-2.62533 -0.301071,-0.59184 -0.547402,-3.63741 -0.547402,-6.76794 0,-4.48792 -0.222888,-5.93816 -1.053736,-6.856237 -0.99235,-1.096534 -0.99016,-1.282418 0.03759,-3.190829 0.600228,-1.114555 1.860432,-2.480788 2.800454,-3.036073 1.597311,-0.943555 1.832974,-0.934295 3.602034,0.141535 1.662692,1.011143 1.940209,1.591425 2.28187,4.771345 0.213932,1.991111 0.640537,5.432839 0.948012,7.648279 0.307475,2.21543 0.840728,6.58061 1.185006,9.70038 0.344277,3.11977 0.929075,6.23868 1.299548,6.93092 0.999846,1.86823 0.888757,10.63564 -0.134761,10.63564 -0.444592,0 -1.870021,-2.16121 -3.167621,-4.8027 z"
     id="path3023"
     inkscape:connector-curvature="0"
     transform="scale(0.8,0.8)" />
  <path
     style="fill:none"
     d="m 26.329721,120.01181 c 0.257991,-0.42605 1.738498,-2.68398 3.290016,-5.01763 5.343811,-8.03767 11.139694,-17.44812 11.16329,-18.1252 0.01301,-0.37322 0.531894,-1.13854 1.153085,-1.70071 1.066485,-0.965156 1.360087,-0.79261 5.267479,3.095628 3.832956,3.814172 5.033806,5.790552 3.518337,5.790552 -0.340837,0 -0.619703,0.44108 -0.619703,0.98019 0,1.08538 -4.176308,6.45625 -5.020284,6.45625 -0.89273,0 -10.552278,4.75119 -14.420527,7.09295 -3.79957,2.30018 -5.124307,2.73689 -4.331693,1.42797 z"
     id="path3025"
     inkscape:connector-curvature="0"
     transform="scale(0.8,0.8)" />
  <path
     style="fill:#ffffff"
     d="M 87.577127,126.37598 C 74.266288,113.10955 67.82366,107.10708 66.556992,106.79193 c -1.171668,-0.29151 -1.90934,-0.20586 -2.05759,0.23889 -0.193505,0.58052 -3.833467,2.54457 -7.58044,4.09026 -0.511255,0.21091 -1.766155,0.91774 -2.788665,1.57074 -1.022511,0.65302 -2.469162,1.20768 -3.21478,1.23259 -0.745618,0.0249 -4.366819,1.7198 -8.047113,3.76642 -3.680294,2.04662 -8.787007,4.58222 -11.34825,5.63467 -2.561243,1.05245 -6.671599,2.98789 -9.134124,4.30097 -2.462524,1.31309 -4.61484,2.16492 -4.782923,1.89295 -0.168084,-0.27196 0.312943,-1.63221 1.068949,-3.02276 0.756005,-1.39055 2.596118,-4.84769 4.089141,-7.68254 1.493022,-2.83485 4.723481,-8.77953 7.178798,-13.21041 2.455317,-4.43088 5.524337,-10.008213 6.820045,-12.394071 1.295708,-2.385858 3.04139,-5.260061 3.879293,-6.387121 1.112237,-1.496063 1.414754,-2.482315 1.120737,-3.653772 -0.243,-0.968187 -7.656646,-8.916682 -18.692567,-20.041119 L 4.7776588,44.691085 7.7643592,44.297905 c 2.1873963,-0.287955 4.1476208,-0.03706 7.3246238,0.937503 2.385858,0.731875 6.011123,1.579165 8.056144,1.882868 14.381352,2.135749 19.789158,3.089289 20.906581,3.686385 0.59184,0.316249 2.543905,0.583869 4.337924,0.594708 1.879997,0.01136 3.771459,0.405157 4.464776,0.929555 2.31888,1.753913 7.782774,0.483952 7.782774,-1.808932 0,-0.921399 2.552837,-6.102126 3.670396,-7.448703 0.421712,-0.508131 2.494947,-4.354233 4.607193,-8.546893 4.364379,-8.662997 11.157239,-21.070651 12.877189,-23.52112 0.634998,-0.904707 1.154544,-2.0898898 1.154544,-2.6337392 0,-0.5438493 0.391021,-0.988817 0.86893,-0.988817 1.17466,0 2.229587,3.2517922 2.229587,6.8726382 0,1.633209 0.239417,3.117438 0.532034,3.298287 0.292624,0.180849 0.719773,1.940223 0.949219,3.909719 0.720151,6.181444 1.906722,12.844933 2.431827,13.656522 0.27759,0.429038 0.421268,2.638145 0.319278,4.909128 -0.128657,2.864911 0.04883,4.20715 0.579769,4.384126 0.500151,0.166716 0.765204,1.619774 0.765204,4.194924 0,2.166922 0.278866,4.112206 0.619703,4.322855 0.340837,0.210649 0.619704,1.611628 0.619704,3.113286 0,3.325987 0.98003,4.013303 5.722502,4.013303 1.828839,0 3.669229,0.344062 4.089749,0.764583 0.47784,0.477836 2.1124,0.697785 4.35841,0.586474 2.65782,-0.131721 3.80193,0.07265 4.39286,0.784676 0.52973,0.638279 1.87003,0.966431 3.9766,0.973603 2.83588,0.0097 7.90478,0.75507 17.43075,2.563299 1.70418,0.32349 4.77171,0.811571 6.81673,1.084623 4.17267,0.557136 7.7463,1.756104 7.7463,2.598918 0,0.307491 -0.31372,0.559078 -0.69714,0.559078 -0.85534,0 -8.16861,3.202423 -8.59841,3.765176 -0.17042,0.223136 -1.00702,0.615706 -1.85911,0.872381 -0.8521,0.256681 -8.10263,3.591416 -16.11229,7.410531 -13.50437,6.439065 -17.8238,8.380162 -20.60514,9.259694 -1.361308,0.430477 -1.428912,3.124353 -0.154926,6.173436 0.511256,1.223604 0.929556,3.34516 0.929556,4.71456 0,1.3694 0.25907,3.67901 0.57571,5.13246 1.24325,5.70679 2.52281,13.43479 2.52281,15.23672 0,1.04269 0.27886,2.06814 0.6197,2.27879 0.34084,0.21065 0.6197,2.22909 0.6197,4.48543 0,2.25633 0.25713,4.95882 0.5714,6.00553 0.76198,2.53788 2.03773,9.72566 1.77315,9.99023 -0.11544,0.11545 -8.847039,-8.39843 -19.403543,-18.91972 l 0,0 z m 11.481666,-0.43868 c 0,-2.53695 -0.310546,-5.19289 -0.690102,-5.9021 -0.379556,-0.70921 -0.954926,-3.82813 -1.278591,-6.93093 -0.323671,-3.10279 -0.847351,-7.59352 -1.163728,-9.97938 -0.316384,-2.38585 -0.751744,-5.957707 -0.967475,-7.937449 -0.31212,-2.8643 -0.694861,-3.797821 -1.873841,-4.570312 -2.456182,-1.609351 -4.571768,-1.21812 -6.848788,1.266537 -2.220577,2.423071 -2.584151,4.289079 -1.120802,5.752428 0.681773,0.681773 0.93204,2.36314 0.938888,6.307696 0.0084,4.82431 0.878399,9.26111 2.044773,10.42748 0.233591,0.23359 0.424708,0.93596 0.424708,1.56083 0,0.62486 0.278867,1.13612 0.619703,1.13612 0.340837,0 0.619704,0.54127 0.619704,1.20283 0,0.66156 0.261006,1.36415 0.580017,1.56131 0.319011,0.19716 1.320805,1.95653 2.22621,3.90972 3.528703,7.6123 4.300432,8.62448 5.69391,7.46799 0.517049,-0.42911 0.795414,-2.27439 0.795414,-5.27277 z m -68.443625,-6.492 c 1.685704,-1.07847 6.199528,-3.45758 10.030719,-5.28692 5.386402,-2.57193 7.181503,-3.7432 7.917132,-5.16574 0.523232,-1.01182 1.223036,-1.83967 1.55512,-1.83967 0.332084,0 0.603789,-0.46606 0.603789,-1.03569 0,-0.56962 0.435575,-1.51699 0.967944,-2.10525 0.892403,-0.9861 0.666848,-1.39144 -2.890108,-5.193839 -4.831156,-5.164522 -5.843372,-5.753791 -7.424938,-4.322494 -0.65332,0.591247 -1.187855,1.433969 -1.187855,1.872713 0,0.928303 -3.438799,6.55211 -9.625904,15.74218 -4.603346,6.83762 -5.398114,8.31815 -4.791144,8.92511 0.713124,0.71313 1.804768,0.35481 4.845245,-1.5904 l 0,0 z M 107.51288,85.865045 c 2.67825,-1.483248 9.05253,-4.999426 14.16509,-7.813729 5.11255,-2.814302 9.56047,-5.365429 9.88427,-5.669176 0.32379,-0.303748 0.999,-0.552268 1.50046,-0.552268 1.13541,0 3.1783,-1.796408 3.1783,-2.794831 0,-0.463394 -1.57636,-0.902092 -4.183,-1.164124 -2.30065,-0.231273 -5.71677,-0.706405 -7.59137,-1.05585 -6.92414,-1.29073 -8.39272,-1.34052 -9.24512,-0.31344 -1.06806,1.286933 -0.51543,2.554583 1.55686,3.5712 3.27951,1.608862 3.57435,4.813125 0.49525,5.382205 -0.64514,0.119237 -1.73072,0.693467 -2.41239,1.276068 -0.68167,0.582602 -1.93657,1.392282 -2.78867,1.799291 -4.02419,1.922183 -10.79174,6.110554 -11.36864,7.035938 -0.63875,1.024593 0.32347,2.995535 1.46244,2.995535 0.26234,0 2.66827,-1.213565 5.34652,-2.696819 l 0,0 z M 31.992939,60.949923 c 0.757512,-0.530582 1.377294,-1.372723 1.377294,-1.871424 0,-0.498702 0.717045,-2.042603 1.593433,-3.430892 1.88588,-2.987425 1.608313,-4.267946 -0.925121,-4.267946 -1.017171,0 -2.489972,-0.253941 -3.272892,-0.564313 -0.782921,-0.310372 -3.654424,-1.046815 -6.381119,-1.636542 -2.726695,-0.589726 -5.303153,-1.343427 -5.725463,-1.674891 -1.221389,-0.958647 -5.119346,0.02319 -5.119346,1.289486 0,1.153091 5.164781,6.482193 10.225106,10.550424 3.396279,2.730428 5.919677,3.222986 8.228108,1.606098 l 0,0 z M 82.666975,35.802214 c 3.677289,-1.755108 4.051862,-3.1174 2.169928,-7.891903 -0.698882,-1.773078 -1.270695,-4.607789 -1.270695,-6.299355 0,-2.163196 -0.247262,-3.075575 -0.833507,-3.075575 -1.135024,0 -2.043131,1.181674 -6.327122,8.233141 -2.0263,3.335299 -4.088996,6.724806 -4.58376,7.532236 -0.778515,1.270483 -0.780932,1.611028 -0.01791,2.530389 1.208366,1.45599 6.758039,0.930334 10.863084,-1.028933 l -1.8e-5,0 z"
     id="path3027"
     inkscape:connector-curvature="0"
     transform="scale(0.8,0.8)" />
</svg>
